<svg width="162" height="163" viewBox="0 0 162 163" fill="none" xmlns="http://www.w3.org/2000/svg">
<path d="M81 163C59.5175 163 38.9148 154.413 23.7244 139.129C8.5339 123.845 0 103.115 0 81.5C0 59.8849 8.5339 39.155 23.7244 23.8708C38.9148 8.58658 59.5175 0 81 0C102.483 0 123.085 8.58658 138.276 23.8708C153.466 39.155 162 59.8849 162 81.5C162 103.115 153.466 123.845 138.276 139.129C123.085 154.413 102.483 163 81 163ZM64.8 122.25L137.7 52.975L125.55 40.75L64.8 97.8L36.45 69.275L24.3 81.5L64.8 122.25Z" fill="#57AF36"/>
</svg>
