<svg width="18" height="15" viewBox="0 0 18 15" fill="none" xmlns="http://www.w3.org/2000/svg">
<path d="M9.26956 0.607422H8.14074C7.56175 0.607422 7.27266 0.607422 7.01353 0.698116C6.85506 0.753581 6.70617 0.833352 6.57221 0.93457C6.35276 1.09976 6.19161 1.34027 5.87094 1.82208C5.70656 2.06906 5.46444 2.43184 5.36808 2.53387C5.12856 2.78528 4.81459 2.95306 4.47247 3.01245C4.33481 3.03674 4.18662 3.03674 3.88943 3.03674C3.09585 3.03674 2.69906 3.03674 2.37516 3.12824C1.97585 3.24121 1.61214 3.45459 1.31871 3.74802C1.02527 4.04146 0.811896 4.40517 0.698926 4.80447C0.607422 5.12838 0.607422 5.52517 0.607422 6.31875V9.51492C0.607422 11.805 0.607422 12.9508 1.31921 13.6618C2.031 14.3727 3.17602 14.3736 5.46606 14.3736H11.9442C14.2351 14.3736 15.3801 14.3736 16.0919 13.6618C16.8029 12.9508 16.8029 11.805 16.8029 9.51492V6.31956C16.8029 5.52598 16.8029 5.12919 16.7114 4.80447C16.5984 4.40517 16.385 4.04146 16.0916 3.74802C15.7982 3.45459 15.4344 3.24121 15.0351 3.12824C14.7112 3.03674 14.3144 3.03674 13.5209 3.03674C13.2245 3.03674 13.0755 3.03674 12.9378 3.01245C12.596 2.95289 12.2823 2.78513 12.043 2.53387C11.9459 2.43184 11.7037 2.06906 11.5394 1.82208C11.2187 1.34027 11.0583 1.09976 10.8389 0.93457C10.7049 0.833352 10.556 0.753581 10.3976 0.698116C10.1384 0.607422 9.84855 0.607422 9.26956 0.607422Z" stroke="white" stroke-width="1.21466" stroke-linecap="round" stroke-linejoin="round"/>
<path d="M11.9442 8.30025C11.9442 9.15931 11.603 9.98318 10.9955 10.5906C10.3881 11.1981 9.56422 11.5393 8.70515 11.5393C7.84609 11.5393 7.02222 11.1981 6.41477 10.5906C5.80732 9.98318 5.46606 9.15931 5.46606 8.30025C5.46606 7.44119 5.80732 6.61731 6.41477 6.00986C7.02222 5.40242 7.84609 5.06116 8.70515 5.06116C9.56422 5.06116 10.3881 5.40242 10.9955 6.00986C11.603 6.61731 11.9442 7.44119 11.9442 8.30025Z" stroke="white" stroke-width="1.21466" stroke-linecap="round" stroke-linejoin="round"/>
<path d="M14.3737 5.46606V5.47505" stroke="white" stroke-width="1.61955" stroke-linecap="round" stroke-linejoin="round"/>
</svg>
