<svg width="24" height="24" viewBox="0 0 24 24" fill="none" xmlns="http://www.w3.org/2000/svg">
<path d="M0.75 11.5417H4.54167C5.16051 11.5417 5.754 11.7876 6.19158 12.2252C6.62917 12.6628 6.875 13.2562 6.875 13.8751C6.875 14.4939 7.12083 15.0874 7.55842 15.525C7.996 15.9626 8.5895 16.2084 9.20833 16.2084H13.875C14.4938 16.2084 15.0873 15.9626 15.5249 15.525C15.9625 15.0874 16.2083 14.4939 16.2083 13.8751C16.2083 13.2562 16.4542 12.6628 16.8918 12.2252C17.3293 11.7876 17.9228 11.5417 18.5417 11.5417H22.3333" fill="#DDE7FD"/>
<path d="M0.75 11.5417H4.54167C5.16051 11.5417 5.754 11.7876 6.19158 12.2252C6.62917 12.6628 6.875 13.2562 6.875 13.8751C6.875 14.4939 7.12083 15.0874 7.55842 15.525C7.996 15.9626 8.5895 16.2084 9.20833 16.2084H13.875C14.4938 16.2084 15.0873 15.9626 15.5249 15.525C15.9625 15.0874 16.2083 14.4939 16.2083 13.8751C16.2083 13.2562 16.4542 12.6628 16.8918 12.2252C17.3293 11.7876 17.9228 11.5417 18.5417 11.5417H22.3333" stroke="#011993" stroke-width="1.5" stroke-linecap="round" stroke-linejoin="round"/>
<path d="M22.3333 9.64583V15.3333C22.3333 17.1898 21.5958 18.9703 20.2831 20.2831C18.9703 21.5958 17.1898 22.3333 15.3333 22.3333H7.75C5.89348 22.3333 4.11301 21.5958 2.80025 20.2831C1.4875 18.9703 0.75 17.1898 0.75 15.3333V7.75C0.75 5.89348 1.4875 4.11301 2.80025 2.80025C4.11301 1.4875 5.89348 0.75 7.75 0.75H13.4375" stroke="#011993" stroke-width="1.5" stroke-linecap="round"/>
<path d="M19.4108 0.75V6.58333M16.5 3.6725H22.3333" stroke="#011993" stroke-width="1.5" stroke-miterlimit="10" stroke-linecap="round"/>
</svg>
