<svg width="30" height="30" viewBox="0 0 30 30" fill="none" xmlns="http://www.w3.org/2000/svg">
<path d="M15 28.4375C22.4213 28.4375 28.4375 22.4213 28.4375 15C28.4375 7.57867 22.4213 1.5625 15 1.5625C7.57867 1.5625 1.5625 7.57867 1.5625 15C1.5625 22.4213 7.57867 28.4375 15 28.4375Z" stroke="#7100FF" stroke-linecap="round" stroke-linejoin="round"/>
<path d="M15 25.5981C20.8532 25.5981 25.5981 20.8532 25.5981 15C25.5981 9.1468 20.8532 4.40186 15 4.40186C9.1468 4.40186 4.40186 9.1468 4.40186 15C4.40186 20.8532 9.1468 25.5981 15 25.5981Z" stroke="#7100FF" stroke-linecap="round" stroke-linejoin="round"/>
<path d="M15 3.45068C15.2589 3.45068 15.4688 3.24082 15.4688 2.98193C15.4688 2.72305 15.2589 2.51318 15 2.51318C14.7411 2.51318 14.5312 2.72305 14.5312 2.98193C14.5312 3.24082 14.7411 3.45068 15 3.45068Z" fill="#7100FF"/>
<path d="M15 27.4868C15.2589 27.4868 15.4688 27.2769 15.4688 27.0181C15.4688 26.7592 15.2589 26.5493 15 26.5493C14.7411 26.5493 14.5312 26.7592 14.5312 27.0181C14.5312 27.2769 14.7411 27.4868 15 27.4868Z" fill="#7100FF"/>
<path d="M27.0181 15.4688C27.277 15.4688 27.4869 15.2589 27.4869 15C27.4869 14.7411 27.277 14.5312 27.0181 14.5312C26.7592 14.5312 26.5494 14.7411 26.5494 15C26.5494 15.2589 26.7592 15.4688 27.0181 15.4688Z" fill="#7100FF"/>
<path d="M2.98187 15.4688C3.24076 15.4688 3.45062 15.2589 3.45062 15C3.45062 14.7411 3.24076 14.5312 2.98187 14.5312C2.72299 14.5312 2.51312 14.7411 2.51312 15C2.51312 15.2589 2.72299 15.4688 2.98187 15.4688Z" fill="#7100FF"/>
<path d="M8.99127 5.06055C9.25016 5.06055 9.46002 4.85068 9.46002 4.5918C9.46002 4.33291 9.25016 4.12305 8.99127 4.12305C8.73239 4.12305 8.52252 4.33291 8.52252 4.5918C8.52252 4.85068 8.73239 5.06055 8.99127 5.06055Z" fill="#7100FF"/>
<path d="M21.0087 25.877C21.2676 25.877 21.4775 25.6671 21.4775 25.4082C21.4775 25.1493 21.2676 24.9395 21.0087 24.9395C20.7498 24.9395 20.54 25.1493 20.54 25.4082C20.54 25.6671 20.7498 25.877 21.0087 25.877Z" fill="#7100FF"/>
<path d="M21.0087 5.06055C21.2676 5.06055 21.4775 4.85068 21.4775 4.5918C21.4775 4.33291 21.2676 4.12305 21.0087 4.12305C20.7498 4.12305 20.54 4.33291 20.54 4.5918C20.54 4.85068 20.7498 5.06055 21.0087 5.06055Z" fill="#7100FF"/>
<path d="M8.99127 25.877C9.25016 25.877 9.46002 25.6671 9.46002 25.4082C9.46002 25.1493 9.25016 24.9395 8.99127 24.9395C8.73239 24.9395 8.52252 25.1493 8.52252 25.4082C8.52252 25.6671 8.73239 25.877 8.99127 25.877Z" fill="#7100FF"/>
<path d="M4.59186 9.45996C4.85074 9.45996 5.06061 9.25009 5.06061 8.99121C5.06061 8.73233 4.85074 8.52246 4.59186 8.52246C4.33297 8.52246 4.12311 8.73233 4.12311 8.99121C4.12311 9.25009 4.33297 9.45996 4.59186 9.45996Z" fill="#7100FF"/>
<path d="M25.4081 21.4775C25.667 21.4775 25.8769 21.2677 25.8769 21.0088C25.8769 20.7499 25.667 20.54 25.4081 20.54C25.1493 20.54 24.9394 20.7499 24.9394 21.0088C24.9394 21.2677 25.1493 21.4775 25.4081 21.4775Z" fill="#7100FF"/>
<path d="M25.4081 9.45996C25.667 9.45996 25.8769 9.25009 25.8769 8.99121C25.8769 8.73233 25.667 8.52246 25.4081 8.52246C25.1493 8.52246 24.9394 8.73233 24.9394 8.99121C24.9394 9.25009 25.1493 9.45996 25.4081 9.45996Z" fill="#7100FF"/>
<path d="M4.59186 21.4775C4.85074 21.4775 5.06061 21.2677 5.06061 21.0088C5.06061 20.7499 4.85074 20.54 4.59186 20.54C4.33297 20.54 4.12311 20.7499 4.12311 21.0088C4.12311 21.2677 4.33297 21.4775 4.59186 21.4775Z" fill="#7100FF"/>
<path d="M15 19.0694C17.2474 19.0694 19.0694 17.2475 19.0694 15C19.0694 12.7526 17.2474 10.9307 15 10.9307C12.7525 10.9307 10.9306 12.7526 10.9306 15C10.9306 17.2475 12.7525 19.0694 15 19.0694Z" stroke="#7100FF" stroke-linecap="round" stroke-linejoin="round"/>
<path d="M15 15.4688C15.2589 15.4688 15.4688 15.2589 15.4688 15C15.4688 14.7411 15.2589 14.5312 15 14.5312C14.7411 14.5312 14.5312 14.7411 14.5312 15C14.5312 15.2589 14.7411 15.4688 15 15.4688Z" fill="#7100FF"/>
<path d="M15 22.8688V19.0688M15 10.9313V7.13135M21.8144 18.9345L18.5237 17.0345M11.4762 12.9657L8.18561 11.0657M8.18561 18.9345L11.4762 17.0345M18.5237 12.9657L21.8144 11.0657" stroke="#7100FF" stroke-linecap="round" stroke-linejoin="round"/>
</svg>
