<svg width="25" height="22" viewBox="0 0 25 22" fill="none" xmlns="http://www.w3.org/2000/svg">
<path d="M11.5 17.3333H4.5C3.57174 17.3333 2.6815 16.9646 2.02513 16.3082C1.36875 15.6518 1 14.7616 1 13.8333V4.5C1 3.57174 1.36875 2.6815 2.02513 2.02513C2.6815 1.36875 3.57174 1 4.5 1H18.5C19.4283 1 20.3185 1.36875 20.9749 2.02513C21.6313 2.6815 22 3.57174 22 4.5V9.75M1 6.83333H22M16.1667 17.3333H23.1667M23.1667 17.3333L19.6667 13.8333M23.1667 17.3333L19.6667 20.8333M5.6725 12.6667H5.67833M10.3333 12.6667H12.6667" stroke="#C86400" stroke-width="2" stroke-linecap="round" stroke-linejoin="round"/>
</svg>
