<svg width="28" height="28" viewBox="0 0 28 28" fill="none" xmlns="http://www.w3.org/2000/svg">
<rect width="28" height="28" rx="6" fill="#FFEBEB"/>
<mask id="path-2-inside-1_107_315" fill="white">
<path d="M14.294 21.5904C15.0324 21.5399 15.7646 21.422 16.4815 21.2381C17.367 21.5043 18.3015 21.5645 19.2138 21.4143C19.2502 21.4098 19.2868 21.4071 19.3235 21.4061C19.649 21.4061 20.076 21.5928 20.699 21.9859V21.3396C20.6993 21.227 20.7297 21.1165 20.7872 21.0197C20.8446 20.9228 20.927 20.8431 21.0257 20.7889C21.2971 20.6357 21.5479 20.4634 21.7782 20.2721C22.6858 19.5138 23.198 18.5011 23.198 17.4301C23.198 17.0766 23.142 16.7243 23.0312 16.3883C23.3065 15.8819 23.5258 15.3534 23.6892 14.8028C24.2142 15.5786 24.4965 16.4944 24.5 17.4301C24.5 18.8861 23.814 20.2441 22.6252 21.2369C22.4261 21.4026 22.218 21.555 22.001 21.6943V23.2086C22.001 23.7289 21.392 24.0288 20.9627 23.7184C20.5559 23.4191 20.1354 23.1388 19.7027 22.8784C19.5776 22.8063 19.4483 22.742 19.3153 22.6859C18.9542 22.7394 18.5896 22.7663 18.2245 22.7664C16.7428 22.7664 15.3732 22.3266 14.294 21.5904ZM6.45283 18.5629C4.5815 16.9961 3.5 14.8599 3.5 12.5709C3.5 7.89493 7.97067 4.15576 13.4295 4.15576C18.8895 4.15576 23.3613 7.89376 23.3613 12.5709C23.3613 17.2469 18.8895 20.9849 13.4295 20.9849C12.8158 20.9849 12.2111 20.9383 11.6153 20.8449C11.3587 20.9044 10.3297 21.5076 8.848 22.5751C8.31133 22.9624 7.55067 22.5891 7.55067 21.9369V19.3551C7.16639 19.1175 6.79987 18.8524 6.454 18.5618M11.6515 19.2524C11.6966 19.2524 11.7421 19.2559 11.788 19.2629C12.3247 19.3516 12.8718 19.3963 13.4295 19.3971C18.0413 19.3971 21.7315 16.3113 21.7315 12.5698C21.7315 8.82943 18.0413 5.74359 13.4307 5.74359C8.82 5.74359 5.1275 8.83176 5.1275 12.5709C5.1275 14.3793 5.99083 16.0826 7.5145 17.3578C7.89872 17.6782 8.31717 17.966 8.76983 18.2211C8.89263 18.2892 8.99513 18.3888 9.06687 18.5095C9.13861 18.6302 9.17702 18.7678 9.17817 18.9083V20.3969C10.3507 19.6211 11.1218 19.2524 11.6515 19.2524Z"/>
</mask>
<path d="M14.294 21.5904C15.0324 21.5399 15.7646 21.422 16.4815 21.2381C17.367 21.5043 18.3015 21.5645 19.2138 21.4143C19.2502 21.4098 19.2868 21.4071 19.3235 21.4061C19.649 21.4061 20.076 21.5928 20.699 21.9859V21.3396C20.6993 21.227 20.7297 21.1165 20.7872 21.0197C20.8446 20.9228 20.927 20.8431 21.0257 20.7889C21.2971 20.6357 21.5479 20.4634 21.7782 20.2721C22.6858 19.5138 23.198 18.5011 23.198 17.4301C23.198 17.0766 23.142 16.7243 23.0312 16.3883C23.3065 15.8819 23.5258 15.3534 23.6892 14.8028C24.2142 15.5786 24.4965 16.4944 24.5 17.4301C24.5 18.8861 23.814 20.2441 22.6252 21.2369C22.4261 21.4026 22.218 21.555 22.001 21.6943V23.2086C22.001 23.7289 21.392 24.0288 20.9627 23.7184C20.5559 23.4191 20.1354 23.1388 19.7027 22.8784C19.5776 22.8063 19.4483 22.742 19.3153 22.6859C18.9542 22.7394 18.5896 22.7663 18.2245 22.7664C16.7428 22.7664 15.3732 22.3266 14.294 21.5904ZM6.45283 18.5629C4.5815 16.9961 3.5 14.8599 3.5 12.5709C3.5 7.89493 7.97067 4.15576 13.4295 4.15576C18.8895 4.15576 23.3613 7.89376 23.3613 12.5709C23.3613 17.2469 18.8895 20.9849 13.4295 20.9849C12.8158 20.9849 12.2111 20.9383 11.6153 20.8449C11.3587 20.9044 10.3297 21.5076 8.848 22.5751C8.31133 22.9624 7.55067 22.5891 7.55067 21.9369V19.3551C7.16639 19.1175 6.79987 18.8524 6.454 18.5618M11.6515 19.2524C11.6966 19.2524 11.7421 19.2559 11.788 19.2629C12.3247 19.3516 12.8718 19.3963 13.4295 19.3971C18.0413 19.3971 21.7315 16.3113 21.7315 12.5698C21.7315 8.82943 18.0413 5.74359 13.4307 5.74359C8.82 5.74359 5.1275 8.83176 5.1275 12.5709C5.1275 14.3793 5.99083 16.0826 7.5145 17.3578C7.89872 17.6782 8.31717 17.966 8.76983 18.2211C8.89263 18.2892 8.99513 18.3888 9.06687 18.5095C9.13861 18.6302 9.17702 18.7678 9.17817 18.9083V20.3969C10.3507 19.6211 11.1218 19.2524 11.6515 19.2524Z" fill="black"/>
<path d="M14.294 21.5904L14.2258 20.5928L11.3456 20.7897L13.7305 22.4165L14.294 21.5904ZM16.4815 21.2381L16.7694 20.2804L16.5027 20.2003L16.233 20.2695L16.4815 21.2381ZM19.2138 21.4143L19.0927 20.4216L19.0719 20.4242L19.0513 20.4276L19.2138 21.4143ZM19.3235 21.4061V20.4061H19.3099L19.2963 20.4065L19.3235 21.4061ZM20.699 21.9859L20.1653 22.8316L21.699 23.7995V21.9859H20.699ZM20.699 21.3396L19.699 21.3372V21.3396H20.699ZM21.0257 20.7889L21.5072 21.6654L21.5172 21.6598L21.0257 20.7889ZM21.7782 20.2721L22.4173 21.0412L22.4193 21.0395L21.7782 20.2721ZM23.0312 16.3883L22.1527 15.9105L21.946 16.2906L22.0815 16.7015L23.0312 16.3883ZM23.6892 14.8028L24.5174 14.2423L23.3319 12.4905L22.7304 14.5184L23.6892 14.8028ZM24.5 17.4301H25.5L25.5 17.4264L24.5 17.4301ZM22.6252 21.2369L23.2648 22.0056L23.2662 22.0045L22.6252 21.2369ZM22.001 21.6943L21.461 20.8526L21.001 21.1477V21.6943H22.001ZM20.9627 23.7184L20.37 24.5239L20.3769 24.5289L20.9627 23.7184ZM19.7027 22.8784L20.2182 22.0216L20.2102 22.0168L20.2022 22.0121L19.7027 22.8784ZM19.3153 22.6859L19.7042 21.7646L19.4461 21.6557L19.1689 21.6967L19.3153 22.6859ZM18.2245 22.7664V23.7664H18.2249L18.2245 22.7664ZM11.6153 20.8449L11.7701 19.857L11.5785 19.827L11.3895 19.8708L11.6153 20.8449ZM8.848 22.5751L8.26344 21.7637L8.26277 21.7642L8.848 22.5751ZM7.55067 19.3551H8.55067V18.7976L8.07649 18.5045L7.55067 19.3551ZM11.788 19.2629L11.951 18.2762L11.9388 18.2744L11.788 19.2629ZM13.4295 19.3971L13.4281 20.3971H13.4295V19.3971ZM7.5145 17.3578L6.8727 18.1246L6.87401 18.1257L7.5145 17.3578ZM8.76983 18.2211L8.27885 19.0923L8.28457 19.0955L8.76983 18.2211ZM9.17817 18.9083H10.1782L10.1781 18.9001L9.17817 18.9083ZM9.17817 20.3969H8.17817V22.2577L9.72999 21.2309L9.17817 20.3969ZM14.294 21.5904L14.3622 22.5881C15.1615 22.5335 15.954 22.4058 16.73 22.2067L16.4815 21.2381L16.233 20.2695C15.5752 20.4382 14.9033 20.5464 14.2258 20.5928L14.294 21.5904ZM16.4815 21.2381L16.1936 22.1958C17.225 22.5058 18.3137 22.576 19.3763 22.401L19.2138 21.4143L19.0513 20.4276C18.2894 20.553 17.5089 20.5027 16.7694 20.2804L16.4815 21.2381ZM19.2138 21.4143L19.335 22.4069C19.3402 22.4063 19.3454 22.4059 19.3507 22.4057L19.3235 21.4061L19.2963 20.4065C19.2282 20.4083 19.1603 20.4134 19.0927 20.4216L19.2138 21.4143ZM19.3235 21.4061V22.4061C19.301 22.4061 19.3495 22.4013 19.5084 22.4688C19.6636 22.5348 19.875 22.6484 20.1653 22.8316L20.699 21.9859L21.2327 21.1403C20.6206 20.754 19.97 20.4061 19.3235 20.4061V21.4061ZM20.699 21.9859H21.699V21.3396H20.699H19.699V21.9859H20.699ZM20.699 21.3396L21.699 21.342C21.6988 21.4081 21.681 21.473 21.6472 21.5299L20.7872 21.0197L19.9271 20.5095C19.7785 20.76 19.6997 21.0459 19.699 21.3372L20.699 21.3396ZM20.7872 21.0197L21.6472 21.5299C21.6135 21.5867 21.5651 21.6335 21.5071 21.6654L21.0257 20.7889L20.5442 19.9125C20.2888 20.0528 20.0757 20.2589 19.9271 20.5095L20.7872 21.0197ZM21.0257 20.7889L21.5172 21.6598C21.8387 21.4783 22.1392 21.2723 22.4173 21.0412L21.7782 20.2721L21.139 19.503C20.9567 19.6545 20.7555 19.7931 20.5341 19.9181L21.0257 20.7889ZM21.7782 20.2721L22.4193 21.0395C23.5228 20.1176 24.198 18.8363 24.198 17.4301H23.198H22.198C22.198 18.1659 21.8489 18.9099 21.137 19.5047L21.7782 20.2721ZM23.198 17.4301H24.198C24.198 16.9713 24.1254 16.5131 23.9808 16.075L23.0312 16.3883L22.0815 16.7015C22.1586 16.9354 22.198 17.1819 22.198 17.4301H23.198ZM23.0312 16.3883L23.9097 16.866C24.2183 16.2984 24.4646 15.7051 24.6479 15.0871L23.6892 14.8028L22.7304 14.5184C22.5871 15.0018 22.3947 15.4655 22.1527 15.9105L23.0312 16.3883ZM23.6892 14.8028L22.861 15.3632C23.2747 15.9746 23.4972 16.6966 23.5 17.4338L24.5 17.4301L25.5 17.4264C25.4958 16.2923 25.1537 15.1826 24.5174 14.2423L23.6892 14.8028ZM24.5 17.4301H23.5C23.5 18.5569 22.9719 19.6445 21.9842 20.4694L22.6252 21.2369L23.2662 22.0045C24.6561 20.8437 25.5 19.2152 25.5 17.4301H24.5ZM22.6252 21.2369L21.9856 20.4682C21.818 20.6077 21.6432 20.7357 21.461 20.8526L22.001 21.6943L22.541 22.5359C22.7928 22.3744 23.0341 22.1975 23.2648 22.0056L22.6252 21.2369ZM22.001 21.6943H21.001V23.2086H22.001H23.001V21.6943H22.001ZM22.001 23.2086H21.001C21.001 23.0453 21.1052 22.925 21.2017 22.8776C21.2971 22.8307 21.4365 22.8271 21.5485 22.908L20.9627 23.7184L20.3769 24.5289C21.4302 25.2903 23.001 24.5905 23.001 23.2086H22.001ZM20.9627 23.7184L21.5553 22.913C21.1236 22.5953 20.6775 22.2979 20.2182 22.0216L19.7027 22.8784L19.1871 23.7353C19.5934 23.9797 19.9881 24.2429 20.37 24.5239L20.9627 23.7184ZM19.7027 22.8784L20.2022 22.0121C20.0415 21.9195 19.8751 21.8368 19.7042 21.7646L19.3153 22.6859L18.9265 23.6072C19.0214 23.6473 19.1138 23.6932 19.2031 23.7447L19.7027 22.8784ZM19.3153 22.6859L19.1689 21.6967C18.8561 21.743 18.5403 21.7663 18.2241 21.7664L18.2245 22.7664L18.2249 23.7664C18.6388 23.7663 19.0523 23.7358 19.4618 23.6751L19.3153 22.6859ZM18.2245 22.7664V21.7664C16.9391 21.7664 15.7667 21.3845 14.8575 20.7643L14.294 21.5904L13.7305 22.4165C14.9796 23.2687 16.5466 23.7664 18.2245 23.7664V22.7664ZM6.45283 18.5629L7.0948 17.7962C5.4228 16.3963 4.5 14.5298 4.5 12.5709H3.5H2.5C2.5 15.1901 3.7402 17.5959 5.81086 19.3297L6.45283 18.5629ZM3.5 12.5709H4.5C4.5 8.59941 8.35734 5.15576 13.4295 5.15576V4.15576V3.15576C7.584 3.15576 2.5 7.19044 2.5 12.5709H3.5ZM13.4295 4.15576V5.15576C18.5032 5.15576 22.3613 8.59853 22.3613 12.5709H23.3613H24.3613C24.3613 7.18899 19.2758 3.15576 13.4295 3.15576V4.15576ZM23.3613 12.5709H22.3613C22.3613 16.5421 18.5033 19.9849 13.4295 19.9849V20.9849V21.9849C19.2757 21.9849 24.3613 17.9518 24.3613 12.5709H23.3613ZM13.4295 20.9849V19.9849C12.8667 19.9849 12.3138 19.9422 11.7701 19.857L11.6153 20.8449L11.4606 21.8329C12.1084 21.9344 12.7649 21.9849 13.4295 21.9849V20.9849ZM11.6153 20.8449L11.3895 19.8708C11.1849 19.9182 10.968 20.0263 10.8189 20.1045C10.6363 20.2002 10.4165 20.327 10.1674 20.4801C9.66769 20.7872 9.01941 21.2191 8.26344 21.7637L8.848 22.5751L9.43256 23.3864C10.1583 22.8636 10.7653 22.4601 11.2147 22.184C11.4402 22.0454 11.6183 21.9435 11.7472 21.876C11.9094 21.791 11.9175 21.8014 11.8412 21.8191L11.6153 20.8449ZM8.848 22.5751L8.26277 21.7642C8.3203 21.7227 8.39451 21.7264 8.43918 21.7484C8.46168 21.7594 8.48897 21.7798 8.51232 21.8151C8.53811 21.8542 8.55067 21.8995 8.55067 21.9369H7.55067H6.55067C6.55067 23.4513 8.27333 24.2231 9.43323 23.386L8.848 22.5751ZM7.55067 21.9369H8.55067V19.3551H7.55067H6.55067V21.9369H7.55067ZM7.55067 19.3551L8.07649 18.5045C7.73339 18.2924 7.40614 18.0557 7.09733 17.7962L6.454 18.5618L5.81067 19.3274C6.1936 19.6491 6.59939 19.9427 7.02484 20.2057L7.55067 19.3551ZM11.6515 19.2524V20.2524C11.6447 20.2524 11.6398 20.2519 11.6372 20.2515L11.788 19.2629L11.9388 18.2744C11.8444 18.26 11.7485 18.2524 11.6515 18.2524V19.2524ZM11.788 19.2629L11.625 20.2496C12.2164 20.3473 12.8177 20.3962 13.4281 20.3971L13.4295 19.3971L13.4309 18.3971C12.926 18.3964 12.4329 18.3559 11.951 18.2763L11.788 19.2629ZM13.4295 19.3971V20.3971C18.407 20.3971 22.7315 17.0333 22.7315 12.5698H21.7315H20.7315C20.7315 15.5893 17.6756 18.3971 13.4295 18.3971V19.3971ZM21.7315 12.5698H22.7315C22.7315 8.1074 18.407 4.74359 13.4307 4.74359V5.7436V6.74359C17.6757 6.74359 20.7315 9.55146 20.7315 12.5698H21.7315ZM13.4307 5.7436V4.74359C8.45437 4.74359 4.1275 8.1097 4.1275 12.5709H5.1275H6.1275C6.1275 9.55382 9.18563 6.74359 13.4307 6.74359V5.7436ZM5.1275 12.5709H4.1275C4.1275 14.7143 5.15373 16.686 6.8727 18.1246L7.5145 17.3578L8.1563 16.5909C6.82793 15.4792 6.1275 14.0442 6.1275 12.5709H5.1275ZM7.5145 17.3578L6.87401 18.1257C7.30659 18.4865 7.77536 18.8085 8.27886 19.0923L8.76983 18.2211L9.26081 17.3499C8.85897 17.1235 8.49085 16.8699 8.15499 16.5898L7.5145 17.3578ZM8.76983 18.2211L8.28457 19.0955C8.25258 19.0777 8.22588 19.0518 8.20719 19.0203L9.06687 18.5095L9.92654 17.9987C9.76437 17.7257 9.53267 17.5008 9.25509 17.3467L8.76983 18.2211ZM9.06687 18.5095L8.20719 19.0203C8.1885 18.9889 8.1785 18.953 8.1782 18.9165L9.17817 18.9083L10.1781 18.9001C10.1755 18.5826 10.0887 18.2716 9.92654 17.9987L9.06687 18.5095ZM9.17817 18.9083H8.17817V20.3969H9.17817H10.1782V18.9083H9.17817ZM9.17817 20.3969L9.72999 21.2309C10.299 20.8544 10.7379 20.5989 11.0786 20.44C11.4319 20.2752 11.6009 20.2524 11.6515 20.2524V19.2524V18.2524C11.1724 18.2524 10.691 18.414 10.2332 18.6275C9.76275 18.8469 9.22981 19.1637 8.62634 19.563L9.17817 20.3969Z" fill="#A91454" mask="url(#path-2-inside-1_107_315)"/>
<path d="M9.40567 11.875C9.62116 11.875 9.82752 11.9609 9.97989 12.1133C10.1323 12.2657 10.2182 12.472 10.2182 12.6875C10.2182 12.903 10.1323 13.1093 9.97989 13.2617C9.82752 13.4141 9.62116 13.5 9.40567 13.5C9.19018 13.5 8.98382 13.4141 8.83145 13.2617C8.67908 13.1093 8.59317 12.903 8.59317 12.6875C8.59317 12.472 8.67908 12.2657 8.83145 12.1133C8.98382 11.9609 9.19018 11.875 9.40567 11.875ZM13.6723 11.875C13.8877 11.875 14.0941 11.9609 14.2465 12.1133C14.3988 12.2656 14.4848 12.472 14.4848 12.6875C14.4848 12.903 14.3988 13.1094 14.2465 13.2617C14.0941 13.4141 13.8877 13.5 13.6723 13.5C13.4568 13.5 13.2504 13.4141 13.0981 13.2617C12.9457 13.1093 12.8598 12.903 12.8598 12.6875C12.8598 12.472 12.9457 12.2657 13.0981 12.1133C13.2504 11.9609 13.4568 11.875 13.6723 11.875ZM17.9379 11.875C18.1532 11.8751 18.3598 11.961 18.5121 12.1133C18.6644 12.2656 18.7504 12.4721 18.7504 12.6875C18.7504 12.9029 18.6644 13.1094 18.5121 13.2617C18.3598 13.414 18.1532 13.4999 17.9379 13.5C17.7224 13.5 17.5151 13.4141 17.3627 13.2617C17.2105 13.1094 17.1254 12.9029 17.1254 12.6875C17.1254 12.4721 17.2105 12.2656 17.3627 12.1133C17.5151 11.9609 17.7224 11.875 17.9379 11.875Z" fill="black" stroke="#A91454"/>
</svg>
