<svg width="21" height="21" viewBox="0 0 21 21" fill="none" xmlns="http://www.w3.org/2000/svg">
<path d="M19.25 9.98332H19.074L17.251 4.65032L1.604 9.98332L1.25 9.98032M0.75 9.98432H1.25L12.396 1.08032L15.213 5.03032" stroke="#2D7D15" stroke-width="1.5" stroke-linecap="square"/>
<path d="M12.75 14.9803C12.75 15.6434 12.4866 16.2793 12.0178 16.7481C11.5489 17.217 10.913 17.4803 10.25 17.4803C9.58696 17.4803 8.95107 17.217 8.48223 16.7481C8.01339 16.2793 7.75 15.6434 7.75 14.9803C7.75 14.3173 8.01339 13.6814 8.48223 13.2126C8.95107 12.7437 9.58696 12.4803 10.25 12.4803C10.913 12.4803 11.5489 12.7437 12.0178 13.2126C12.4866 13.6814 12.75 14.3173 12.75 14.9803Z" stroke="#2D7D15" stroke-width="1.5" stroke-linecap="square"/>
<path d="M19.75 9.98035V19.9803H0.75V9.98035H19.75Z" stroke="#2D7D15" stroke-width="1.5" stroke-linecap="square"/>
<path d="M0.75 9.98035H2.75C2.75 10.5108 2.53929 11.0195 2.16421 11.3946C1.78914 11.7696 1.28043 11.9803 0.75 11.9803V9.98035ZM19.75 9.98035H17.75C17.75 10.5108 17.9607 11.0195 18.3358 11.3946C18.7109 11.7696 19.2196 11.9803 19.75 11.9803V9.98035ZM0.75 19.9803H2.752C2.75226 19.7174 2.70066 19.4569 2.60014 19.2139C2.49963 18.9709 2.35217 18.7501 2.16621 18.5641C1.98026 18.3782 1.75946 18.2307 1.51644 18.1302C1.27343 18.0297 1.01298 17.9781 0.75 17.9783V19.9803ZM19.75 19.9803H17.75C17.75 19.4499 17.9607 18.9412 18.3358 18.5661C18.7109 18.1911 19.2196 17.9803 19.75 17.9803V19.9803Z" stroke="#2D7D15" stroke-width="1.5" stroke-linecap="square"/>
</svg>
