<svg width="28" height="28" viewBox="0 0 28 28" fill="none" xmlns="http://www.w3.org/2000/svg">
<path fill-rule="evenodd" clip-rule="evenodd" d="M6.83932 8.12005C10.5182 9.54087 14.9387 9.54087 18.6168 8.11852C20.2184 9.80856 21.5465 11.7382 22.5531 13.8377C23.2192 13.9401 23.8571 14.128 24.4552 14.39C23.3651 11.6064 21.5211 8.90074 19.5388 6.87493L22.3606 2.74997C21.8991 2.44944 21.4178 2.18045 20.9199 1.94484C19.0561 1.03964 16.0624 0 12.7655 0C9.39985 0 6.32523 1.08471 4.4499 2.00213C4.26351 2.0938 4.08935 2.18292 3.92741 2.26949C3.60123 2.44518 3.32623 2.60865 3.11082 2.74997L5.91273 6.87493C-0.649005 13.7789 -5.53784 27.4974 12.7655 27.4974C14.0184 27.5042 15.2704 27.4276 16.5131 27.2682C16.0202 26.86 15.5806 26.3913 15.2046 25.8734C14.455 25.9365 13.6419 25.9686 12.7655 25.9697C8.34646 25.9697 5.5751 25.1363 3.91977 23.9904C2.33471 22.8927 1.63882 21.4162 1.54028 19.6883C1.43792 17.8931 1.98715 15.7978 3.0161 13.6765C3.99768 11.6538 5.36808 9.70663 6.83932 8.12005ZM17.7254 6.81993L19.9849 3.51767C17.8843 3.66892 15.3841 4.16239 12.9779 4.85904C11.2591 5.35557 9.35019 5.27994 7.58105 4.95377C7.1354 4.87126 6.69283 4.77291 6.25419 4.65891L7.72084 6.8184C10.865 7.93748 14.582 7.93748 17.7254 6.81993ZM5.96162 2.99136C6.57272 3.17316 7.21057 3.33128 7.85834 3.45121C9.50068 3.75371 11.1484 3.79801 12.5531 3.39087C14.191 2.91352 15.8569 2.53824 17.5413 2.2672C16.1357 1.84401 14.4926 1.52776 12.7647 1.52776C10.1332 1.52776 7.67959 2.26185 5.96162 2.99136Z" fill="#00649D"/>
<path fill-rule="evenodd" clip-rule="evenodd" d="M12.7342 16.8054C13.5141 16.8054 14.226 17.098 14.7661 17.5792C14.4811 18.0743 14.2525 18.5999 14.0847 19.1459C13.9547 18.9005 13.7603 18.6951 13.5223 18.5519C13.2844 18.4087 13.0119 18.3331 12.7342 18.3332V21.3887C13.1291 21.3887 13.4889 21.239 13.7601 20.993C13.7301 21.5644 13.7644 22.1373 13.8624 22.701C13.5033 22.8435 13.1205 22.9166 12.7342 22.9165V23.6803H11.2064V22.9165C10.5744 22.9166 9.95793 22.7207 9.44189 22.3558C8.92586 21.991 8.53566 21.4751 8.32504 20.8792C8.25758 20.6881 8.26877 20.4781 8.35616 20.2953C8.44354 20.1125 8.59996 19.9719 8.79101 19.9045C8.98206 19.837 9.19208 19.8482 9.37487 19.9356C9.55767 20.023 9.69826 20.1794 9.76572 20.3704C9.87109 20.6683 10.0662 20.9262 10.3242 21.1085C10.5822 21.2909 10.8904 21.3888 11.2064 21.3887V18.3332C10.396 18.3332 9.61884 18.0113 9.04582 17.4382C8.4728 16.8652 8.15088 16.088 8.15088 15.2777C8.15088 14.4673 8.4728 13.6901 9.04582 13.1171C9.61884 12.5441 10.396 12.2221 11.2064 12.2221V11.4583H12.7342V12.2221C13.3662 12.222 13.9826 12.4179 14.4987 12.7828C15.0147 13.1476 15.4049 13.6635 15.6155 14.2594C15.6489 14.354 15.6634 14.4542 15.658 14.5544C15.6527 14.6546 15.6277 14.7528 15.5844 14.8433C15.5411 14.9338 15.4805 15.0149 15.4059 15.0819C15.3312 15.149 15.2442 15.2007 15.1496 15.2341C15.055 15.2675 14.9547 15.282 14.8545 15.2766C14.7543 15.2713 14.6562 15.2463 14.5657 15.203C14.4752 15.1597 14.3941 15.0991 14.327 15.0244C14.26 14.9498 14.2082 14.8627 14.1748 14.7681C14.0695 14.4703 13.8743 14.2124 13.6163 14.0301C13.3583 13.8477 13.0501 13.7498 12.7342 13.7499V16.8054ZM11.2064 13.7499C10.8012 13.7499 10.4126 13.9109 10.1261 14.1974C9.8396 14.4839 9.67864 14.8725 9.67864 15.2777C9.67864 15.6828 9.8396 16.0714 10.1261 16.3579C10.4126 16.6445 10.8012 16.8054 11.2064 16.8054V13.7499Z" fill="#00649D"/>
<path d="M22.1529 21.7096L23.0619 20.8945L24.0817 22.0327L21.389 24.4451L18.6971 22.0312L19.7169 20.8938L20.6251 21.7088V18.3333H22.1529V21.7096Z" fill="#00649D"/>
<path fill-rule="evenodd" clip-rule="evenodd" d="M21.3889 27.4999C23.0097 27.4999 24.5641 26.8561 25.7101 25.71C26.8561 24.564 27.5 23.0096 27.5 21.3889C27.5 19.7681 26.8561 18.2138 25.7101 17.0677C24.5641 15.9217 23.0097 15.2778 21.3889 15.2778C19.7682 15.2778 18.2138 15.9217 17.0678 17.0677C15.9217 18.2138 15.2779 19.7681 15.2779 21.3889C15.2779 23.0096 15.9217 24.564 17.0678 25.71C18.2138 26.8561 19.7682 27.4999 21.3889 27.4999ZM21.3889 25.9722C22.6045 25.9722 23.7703 25.4893 24.6298 24.6297C25.4893 23.7702 25.9722 22.6044 25.9722 21.3889C25.9722 20.1733 25.4893 19.0075 24.6298 18.148C23.7703 17.2885 22.6045 16.8056 21.3889 16.8056C20.1734 16.8056 19.0076 17.2885 18.1481 18.148C17.2885 19.0075 16.8057 20.1733 16.8057 21.3889C16.8057 22.6044 17.2885 23.7702 18.1481 24.6297C19.0076 25.4893 20.1734 25.9722 21.3889 25.9722Z" fill="#00649D"/>
</svg>
