<svg width="28" height="28" viewBox="0 0 28 28" fill="none" xmlns="http://www.w3.org/2000/svg">
<rect width="28" height="28" rx="4" fill="#F9EECA"/>
<path d="M15.1667 4.08325H16.3333C17.4183 4.08325 17.9608 4.08325 18.4065 4.20225C18.9998 4.36157 19.5406 4.67422 19.9748 5.10878C20.4089 5.54334 20.7211 6.08451 20.8798 6.67792C21 7.12242 21 7.66492 21 8.74992H5.83333C5.21449 8.74992 4.621 8.50409 4.18342 8.0665C3.74583 7.62892 3.5 7.03542 3.5 6.41659C3.5 5.79775 3.74583 5.20425 4.18342 4.76667C4.621 4.32908 5.21449 4.08325 5.83333 4.08325H9.33333" stroke="#B88D00" stroke-width="1.5" stroke-linecap="round" stroke-linejoin="round"/>
<path d="M3.5 6.41663V18.0833C3.5 21.3826 3.5 23.0335 4.5255 24.0578C5.54983 25.0833 7.20067 25.0833 10.5 25.0833H17.5C20.7993 25.0833 22.4502 25.0833 23.4745 24.0578C24.5 23.0335 24.5 21.3826 24.5 18.0833V15.75C24.5 12.4506 24.5 10.7998 23.4745 9.77546C22.4502 8.74996 20.7993 8.74996 17.5 8.74996H8.16667" stroke="#B88D00" stroke-width="1.5" stroke-linecap="round" stroke-linejoin="round"/>
<path d="M24.5 14.5833H22.1667C21.6242 14.5833 21.3523 14.5833 21.1307 14.6428C20.8342 14.7224 20.5638 14.8785 20.3468 15.0956C20.1297 15.3126 19.9736 15.583 19.894 15.8795C19.8333 16.1023 19.8333 16.3741 19.8333 16.9166C19.8333 17.4591 19.8333 17.7298 19.8928 17.9526C19.9724 18.2491 20.1285 18.5195 20.3456 18.7365C20.5627 18.9536 20.833 19.1097 21.1295 19.1893C21.3523 19.25 21.6242 19.25 22.1667 19.25H24.5M12.25 2.91663C12.9389 2.91648 13.6167 3.09065 14.2202 3.42292C14.8237 3.75519 15.3334 4.23475 15.7017 4.81697C16.07 5.39919 16.285 6.06512 16.3267 6.75279C16.3684 7.44046 16.2354 8.1275 15.9402 8.74996H8.55984C8.26459 8.1275 8.13162 7.44046 8.17332 6.75279C8.21502 6.06512 8.43004 5.39919 8.79835 4.81697C9.16666 4.23475 9.67629 3.75519 10.2798 3.42292C10.8833 3.09065 11.5611 2.91648 12.25 2.91663Z" stroke="#B88D00" stroke-width="1.5" stroke-linecap="round" stroke-linejoin="round"/>
</svg>
