<svg width="24" height="24" viewBox="0 0 24 24" fill="none" xmlns="http://www.w3.org/2000/svg">
<path d="M6.67615 16.4084C4.16712 13.8945 2.23759 10.8629 1.02248 7.52543C0.353983 5.70076 0.966483 3.69643 2.34082 2.3221L3.19132 1.47276C3.41997 1.24365 3.69156 1.06188 3.99055 0.937859C4.28953 0.813838 4.61004 0.75 4.93373 0.75C5.25742 0.75 5.57793 0.813838 5.87692 0.937859C6.17591 1.06188 6.4475 1.24365 6.67615 1.47276L8.66765 3.46426C8.89676 3.69291 9.07853 3.96451 9.20255 4.26349C9.32657 4.56248 9.39041 4.88299 9.39041 5.20668C9.39041 5.53037 9.32657 5.85088 9.20255 6.14987C9.07853 6.44885 8.89676 6.72045 8.66765 6.9491L8.17765 7.4391C7.98152 7.63519 7.82593 7.868 7.71978 8.12423C7.61363 8.38045 7.559 8.65508 7.559 8.93243C7.559 9.20978 7.61363 9.48441 7.71978 9.74063C7.82593 9.99686 7.98152 10.2297 8.17765 10.4258L12.6577 14.9069C12.8537 15.1031 13.0866 15.2586 13.3428 15.3648C13.599 15.4709 13.8736 15.5256 14.151 15.5256C14.4283 15.5256 14.703 15.4709 14.9592 15.3648C15.2154 15.2586 15.4482 15.1031 15.6443 14.9069L16.1355 14.4169C16.3641 14.1878 16.6357 14.006 16.9347 13.882C17.2337 13.758 17.5542 13.6942 17.8779 13.6942C18.2016 13.6942 18.5221 13.758 18.8211 13.882C19.1201 14.006 19.3917 14.1878 19.6203 14.4169L21.6118 16.4084C21.8409 16.6371 22.0227 16.9087 22.1467 17.2077C22.2707 17.5066 22.3346 17.8272 22.3346 18.1508C22.3346 18.4745 22.2707 18.795 22.1467 19.094C22.0227 19.393 21.8409 19.6646 21.6118 19.8933L20.7625 20.7426C19.3881 22.1181 17.3838 22.7306 15.5592 22.0621C12.2217 20.847 9.19005 18.9175 6.67615 16.4084Z" stroke="#1000F5" stroke-width="1.5" stroke-linejoin="round"/>
</svg>
