<svg width="25" height="25" viewBox="0 0 25 25" fill="none" xmlns="http://www.w3.org/2000/svg">
<path fill-rule="evenodd" clip-rule="evenodd" d="M8.47126 9.49604C11.4143 10.6327 14.9508 10.6327 17.8933 9.49482C19.1745 10.8469 20.237 12.3905 21.0423 14.0702C21.5752 14.152 22.0854 14.3024 22.5639 14.512C21.6919 12.2851 20.2167 10.1206 18.6309 8.49994L20.8883 5.19998C20.5191 4.95955 20.134 4.74436 19.7357 4.55587C18.2447 3.83171 15.8497 3 13.2122 3C10.5197 3 8.05998 3.86777 6.55972 4.60171C6.41061 4.67504 6.27128 4.74633 6.14173 4.81559C5.88078 4.95615 5.66079 5.08692 5.48845 5.19998L7.72999 8.49994C2.4806 14.0231 -1.43047 24.9979 13.2122 24.9979C14.2145 25.0033 15.2161 24.9421 16.2103 24.8146C15.816 24.488 15.4643 24.1131 15.1635 23.6987C14.5638 23.7492 13.9133 23.7749 13.2122 23.7757C9.67697 23.7757 7.45988 23.109 6.13561 22.1923C4.86757 21.3142 4.31086 20.1329 4.23202 18.7506C4.15014 17.3145 4.58952 15.6383 5.41268 13.9412C6.19795 12.323 7.29427 10.7653 8.47126 9.49604ZM17.1801 8.45594L18.9878 5.81414C17.3072 5.93513 15.3071 6.32991 13.3821 6.88724C12.0071 7.28445 10.48 7.22395 9.06464 6.96301C8.70812 6.897 8.35407 6.81833 8.00315 6.72713L9.17647 8.45472C11.6918 9.34999 14.6654 9.34999 17.1801 8.45594ZM7.7691 5.39309C8.25798 5.53853 8.76825 5.66503 9.28647 5.76097C10.6003 6.00297 11.9185 6.03841 13.0423 5.71269C14.3526 5.33082 15.6854 5.03059 17.0328 4.81376C15.9084 4.47521 14.5939 4.22221 13.2116 4.22221C11.1063 4.22221 9.14347 4.80948 7.7691 5.39309Z" fill="#43157C"/>
<path fill-rule="evenodd" clip-rule="evenodd" d="M13.1871 16.4437C13.8111 16.4437 14.3806 16.6778 14.8127 17.0628C14.5847 17.4589 14.4018 17.8793 14.2676 18.3162C14.1636 18.1198 14.008 17.9555 13.8177 17.841C13.6273 17.7264 13.4093 17.6659 13.1871 17.666V20.1104C13.5031 20.1104 13.7909 19.9906 14.0078 19.7938C13.9839 20.2509 14.0114 20.7093 14.0897 21.1603C13.8025 21.2742 13.4962 21.3327 13.1871 21.3326V21.9437H11.9649V21.3326C11.4593 21.3327 10.9661 21.176 10.5533 20.8841C10.1405 20.5922 9.82833 20.1795 9.65984 19.7028C9.60587 19.5499 9.61482 19.3819 9.68473 19.2357C9.75464 19.0894 9.87978 18.977 10.0326 18.923C10.1854 18.869 10.3535 18.878 10.4997 18.9479C10.6459 19.0178 10.7584 19.1429 10.8124 19.2958C10.8967 19.5341 11.0528 19.7404 11.2592 19.8862C11.4656 20.0321 11.7122 20.1104 11.9649 20.1104V17.666C11.3166 17.666 10.6949 17.4084 10.2365 16.95C9.77804 16.4916 9.52051 15.8698 9.52051 15.2215C9.52051 14.5732 9.77804 13.9515 10.2365 13.4931C10.6949 13.0347 11.3166 12.7771 11.9649 12.7771V12.166H13.1871V12.7771C13.6927 12.777 14.1859 12.9337 14.5987 13.2256C15.0116 13.5175 15.3237 13.9302 15.4922 14.4069C15.5189 14.4826 15.5305 14.5628 15.5262 14.643C15.522 14.7231 15.5019 14.8016 15.4673 14.874C15.4327 14.9464 15.3842 15.0113 15.3245 15.065C15.2648 15.1186 15.1951 15.16 15.1194 15.1867C15.0438 15.2134 14.9636 15.225 14.8834 15.2207C14.8033 15.2164 14.7248 15.1964 14.6524 15.1618C14.58 15.1272 14.5151 15.0787 14.4614 15.019C14.4078 14.9593 14.3664 14.8896 14.3397 14.8139C14.2554 14.5756 14.0993 14.3693 13.8929 14.2235C13.6865 14.0776 13.4399 13.9993 13.1871 13.9993V16.4437ZM11.9649 13.9993C11.6408 13.9993 11.3299 14.1281 11.1007 14.3573C10.8715 14.5865 10.7427 14.8974 10.7427 15.2215C10.7427 15.5457 10.8715 15.8566 11.1007 16.0858C11.3299 16.315 11.6408 16.4437 11.9649 16.4437V13.9993Z" fill="#43157C"/>
<path d="M20.7221 20.3671L21.4493 19.715L22.2652 20.6256L20.111 22.5555L17.9575 20.6244L18.7733 19.7144L19.4999 20.3665V17.666H20.7221V20.3671Z" fill="#43157C"/>
<path fill-rule="evenodd" clip-rule="evenodd" d="M20.111 25.0003C21.4076 25.0003 22.6511 24.4853 23.5679 23.5684C24.4847 22.6516 24.9998 21.4081 24.9998 20.1115C24.9998 18.8149 24.4847 17.5714 23.5679 16.6546C22.6511 15.7377 21.4076 15.2227 20.111 15.2227C18.8144 15.2227 17.5709 15.7377 16.654 16.6546C15.7372 17.5714 15.2221 18.8149 15.2221 20.1115C15.2221 21.4081 15.7372 22.6516 16.654 23.5684C17.5709 24.4853 18.8144 25.0003 20.111 25.0003ZM20.111 23.7781C21.0834 23.7781 22.016 23.3918 22.7037 22.7042C23.3913 22.0166 23.7776 21.0839 23.7776 20.1115C23.7776 19.139 23.3913 18.2064 22.7037 17.5188C22.016 16.8312 21.0834 16.4449 20.111 16.4449C19.1385 16.4449 18.2059 16.8312 17.5183 17.5188C16.8306 18.2064 16.4443 19.139 16.4443 20.1115C16.4443 21.0839 16.8306 22.0166 17.5183 22.7042C18.2059 23.3918 19.1385 23.7781 20.111 23.7781Z" fill="#43157C"/>
</svg>
