<svg width="24" height="24" viewBox="0 0 24 24" fill="none" xmlns="http://www.w3.org/2000/svg">
<path d="M12 22.75C17.9371 22.75 22.75 17.9371 22.75 12C22.75 6.06294 17.9371 1.25 12 1.25C6.06294 1.25 1.25 6.06294 1.25 12C1.25 17.9371 6.06294 22.75 12 22.75Z" stroke="#43157C" stroke-linecap="round" stroke-linejoin="round"/>
<path d="M12 20.4785C16.6826 20.4785 20.4785 16.6825 20.4785 12C20.4785 7.31744 16.6826 3.52148 12 3.52148C7.31747 3.52148 3.52151 7.31744 3.52151 12C3.52151 16.6825 7.31747 20.4785 12 20.4785Z" stroke="#43157C" stroke-linecap="round" stroke-linejoin="round"/>
<path d="M12 2.75977C12.2071 2.75977 12.375 2.59187 12.375 2.38477C12.375 2.17766 12.2071 2.00977 12 2.00977C11.7929 2.00977 11.625 2.17766 11.625 2.38477C11.625 2.59187 11.7929 2.75977 12 2.75977Z" fill="#43157C"/>
<path d="M12 21.9902C12.2071 21.9902 12.375 21.8223 12.375 21.6152C12.375 21.4081 12.2071 21.2402 12 21.2402C11.7929 21.2402 11.625 21.4081 11.625 21.6152C11.625 21.8223 11.7929 21.9902 12 21.9902Z" fill="#43157C"/>
<path d="M21.6145 12.375C21.8216 12.375 21.9895 12.2071 21.9895 12C21.9895 11.7929 21.8216 11.625 21.6145 11.625C21.4074 11.625 21.2395 11.7929 21.2395 12C21.2395 12.2071 21.4074 12.375 21.6145 12.375Z" fill="#43157C"/>
<path d="M2.3855 12.375C2.5926 12.375 2.7605 12.2071 2.7605 12C2.7605 11.7929 2.5926 11.625 2.3855 11.625C2.17839 11.625 2.0105 11.7929 2.0105 12C2.0105 12.2071 2.17839 12.375 2.3855 12.375Z" fill="#43157C"/>
<path d="M7.19299 4.04883C7.4001 4.04883 7.56799 3.88093 7.56799 3.67383C7.56799 3.46672 7.4001 3.29883 7.19299 3.29883C6.98589 3.29883 6.81799 3.46672 6.81799 3.67383C6.81799 3.88093 6.98589 4.04883 7.19299 4.04883Z" fill="#43157C"/>
<path d="M16.807 20.7012C17.0141 20.7012 17.182 20.5333 17.182 20.3262C17.182 20.1191 17.0141 19.9512 16.807 19.9512C16.5999 19.9512 16.432 20.1191 16.432 20.3262C16.432 20.5333 16.5999 20.7012 16.807 20.7012Z" fill="#43157C"/>
<path d="M16.807 4.04883C17.0141 4.04883 17.182 3.88093 17.182 3.67383C17.182 3.46672 17.0141 3.29883 16.807 3.29883C16.5999 3.29883 16.432 3.46672 16.432 3.67383C16.432 3.88093 16.5999 4.04883 16.807 4.04883Z" fill="#43157C"/>
<path d="M7.19299 20.7012C7.4001 20.7012 7.56799 20.5333 7.56799 20.3262C7.56799 20.1191 7.4001 19.9512 7.19299 19.9512C6.98589 19.9512 6.81799 20.1191 6.81799 20.3262C6.81799 20.5333 6.98589 20.7012 7.19299 20.7012Z" fill="#43157C"/>
<path d="M3.67349 7.56836C3.8806 7.56836 4.04849 7.40047 4.04849 7.19336C4.04849 6.98625 3.8806 6.81836 3.67349 6.81836C3.46639 6.81836 3.29849 6.98625 3.29849 7.19336C3.29849 7.40047 3.46639 7.56836 3.67349 7.56836Z" fill="#43157C"/>
<path d="M20.3265 17.1816C20.5336 17.1816 20.7015 17.0137 20.7015 16.8066C20.7015 16.5995 20.5336 16.4316 20.3265 16.4316C20.1194 16.4316 19.9515 16.5995 19.9515 16.8066C19.9515 17.0137 20.1194 17.1816 20.3265 17.1816Z" fill="#43157C"/>
<path d="M20.3265 7.56836C20.5336 7.56836 20.7015 7.40047 20.7015 7.19336C20.7015 6.98625 20.5336 6.81836 20.3265 6.81836C20.1194 6.81836 19.9515 6.98625 19.9515 7.19336C19.9515 7.40047 20.1194 7.56836 20.3265 7.56836Z" fill="#43157C"/>
<path d="M3.67349 17.1816C3.8806 17.1816 4.04849 17.0137 4.04849 16.8066C4.04849 16.5995 3.8806 16.4316 3.67349 16.4316C3.46639 16.4316 3.29849 16.5995 3.29849 16.8066C3.29849 17.0137 3.46639 17.1816 3.67349 17.1816Z" fill="#43157C"/>
<path d="M12 15.2551C13.798 15.2551 15.2555 13.7976 15.2555 11.9996C15.2555 10.2017 13.798 8.74414 12 8.74414C10.202 8.74414 8.74451 10.2017 8.74451 11.9996C8.74451 13.7976 10.202 15.2551 12 15.2551Z" stroke="#43157C" stroke-linecap="round" stroke-linejoin="round"/>
<path d="M12 12.375C12.2071 12.375 12.375 12.2071 12.375 12C12.375 11.7929 12.2071 11.625 12 11.625C11.7929 11.625 11.625 11.7929 11.625 12C11.625 12.2071 11.7929 12.375 12 12.375Z" fill="#43157C"/>
<path d="M12 18.2951V15.2551M12 8.74508V5.70508M17.4515 15.1476L14.819 13.6276M9.18099 10.3726L6.54849 8.85258M6.54849 15.1476L9.18099 13.6276M14.819 10.3726L17.4515 8.85258" stroke="#43157C" stroke-linecap="round" stroke-linejoin="round"/>
</svg>
