<svg width="1440" height="1024" viewBox="0 0 1440 1024" fill="none" xmlns="http://www.w3.org/2000/svg">
<rect width="1440" height="1024" fill="#1E1E1E"/>
<g clip-path="url(#clip0_50_532)">
<rect width="1440" height="1024" fill="white"/>
<ellipse cx="245.687" cy="265.937" rx="292.701" ry="290.689" fill="url(#paint0_radial_50_532)" fill-opacity="0.5"/>
<ellipse cx="486.349" cy="773.243" rx="292.701" ry="290.689" fill="url(#paint1_radial_50_532)" fill-opacity="0.5"/>
<path d="M-110.242 1.53881C-110.242 1.53881 766.741 -654.904 342.97 1.53881C-80.8008 657.982 1057.61 1255.32 342.97 1255.32C-371.666 1255.32 -110.242 1255.32 -110.242 1255.32V1.53881Z" fill="url(#paint2_linear_50_532)" fill-opacity="0.34"/>
<path d="M1827.49 787.092C1827.49 787.092 1097.02 1603.44 1383.16 876.379C1669.3 149.315 435.525 -212.04 1136.16 -352.831C1836.79 -493.622 1580.49 -442.119 1580.49 -442.119L1827.49 787.092Z" fill="#F3EAFE"/>
</g>
<defs>
<radialGradient id="paint0_radial_50_532" cx="0" cy="0" r="1" gradientUnits="userSpaceOnUse" gradientTransform="translate(245.687 265.937) rotate(90) scale(290.689 292.701)">
<stop stop-color="#8422FF"/>
<stop offset="1" stop-color="white"/>
</radialGradient>
<radialGradient id="paint1_radial_50_532" cx="0" cy="0" r="1" gradientUnits="userSpaceOnUse" gradientTransform="translate(486.349 773.243) rotate(90) scale(290.689 292.701)">
<stop stop-color="#8422FF"/>
<stop offset="1" stop-color="white"/>
</radialGradient>
<linearGradient id="paint2_linear_50_532" x1="584.866" y1="482.554" x2="-156.91" y2="482.554" gradientUnits="userSpaceOnUse">
<stop stop-color="#FF6A00"/>
<stop offset="1" stop-color="#FEFEFE"/>
</linearGradient>
<clipPath id="clip0_50_532">
<rect width="1440" height="1024" fill="white"/>
</clipPath>
</defs>
</svg>
