<svg width="24" height="24" viewBox="0 0 24 24" fill="none" xmlns="http://www.w3.org/2000/svg">
<path d="M8.40001 12.8001C8.76481 12.8001 9.08161 12.8001 9.36001 12.8673C9.79059 12.97 10.1844 13.1898 10.4978 13.5024C10.8112 13.815 11.0321 14.2082 11.136 14.6385C11.2 14.9185 11.2 15.2353 11.2 15.6001V19.6001C11.2 19.9649 11.2 20.2817 11.1344 20.5601C11.0314 20.9911 10.8111 21.3851 10.4979 21.6986C10.1848 22.0121 9.7909 22.2327 9.36001 22.3361C9.08161 22.4001 8.76481 22.4001 8.40001 22.4001H4.40001C4.03521 22.4001 3.71841 22.4001 3.44001 22.3345C3.00981 22.2311 2.61657 22.0108 2.30372 21.698C1.99087 21.3851 1.77058 20.9919 1.66721 20.5617C1.60001 20.2817 1.60001 19.9649 1.60001 19.6001V15.6001C1.60001 15.2353 1.60001 14.9185 1.66721 14.6401C1.77046 14.2101 1.9905 13.817 2.30305 13.5042C2.6156 13.1913 3.00851 12.9709 3.43841 12.8673C3.71841 12.8001 4.03521 12.8001 4.40001 12.8001H8.40001ZM19.6 12.8001C19.9648 12.8001 20.2816 12.8001 20.56 12.8673C20.9903 12.9703 21.3837 13.1902 21.6969 13.5028C22.01 13.8154 22.2306 14.2084 22.3344 14.6385C22.4016 14.9185 22.4 15.2353 22.4 15.6001V19.6001C22.4 19.9649 22.4 20.2817 22.3344 20.5601C22.2313 20.9906 22.0111 21.3842 21.6983 21.6973C21.3854 22.0105 20.992 22.231 20.5616 22.3345C20.2816 22.4017 19.9648 22.4001 19.6 22.4001H15.6C15.2352 22.4001 14.9184 22.4001 14.64 22.3345C14.2098 22.2311 13.8166 22.0108 13.5037 21.698C13.1909 21.3851 12.9706 20.9919 12.8672 20.5617C12.8 20.2817 12.8 19.9649 12.8 19.6001V15.6001C12.8 15.2353 12.8 14.9185 12.8672 14.6401C12.9705 14.2101 13.1905 13.817 13.5031 13.5042C13.8156 13.1913 14.2085 12.9709 14.6384 12.8673C14.9184 12.8001 15.2352 12.8001 15.6 12.8001H19.6ZM4.48001 14.4001C3.98881 14.4001 3.88321 14.4049 3.81441 14.4225C3.67068 14.4569 3.53928 14.5304 3.43478 14.6349C3.33029 14.7394 3.25678 14.8708 3.22241 15.0145C3.20641 15.0833 3.20001 15.1905 3.20001 15.6801V19.5201C3.20001 20.0129 3.20481 20.1185 3.22241 20.1873C3.25678 20.331 3.33029 20.4624 3.43478 20.5669C3.53928 20.6714 3.67068 20.7449 3.81441 20.7793C3.88321 20.7953 3.99041 20.8001 4.48001 20.8001H8.32001C8.81281 20.8001 8.91841 20.7953 8.98721 20.7777C9.13073 20.7435 9.26199 20.6702 9.36647 20.566C9.47095 20.4618 9.54458 20.3307 9.57921 20.1873C9.59521 20.1185 9.60001 20.0113 9.60001 19.5201V15.6801C9.60001 15.1889 9.59521 15.0833 9.57761 15.0145C9.54336 14.871 9.47009 14.7397 9.3659 14.6352C9.2617 14.5308 9.13064 14.4571 8.98721 14.4225C8.91841 14.4065 8.81121 14.4001 8.32001 14.4001H4.48001ZM15.68 14.4001C15.1888 14.4001 15.0832 14.4049 15.0144 14.4225C14.8707 14.4569 14.7393 14.5304 14.6348 14.6349C14.5303 14.7394 14.4568 14.8708 14.4224 15.0145C14.4064 15.0833 14.4 15.1905 14.4 15.6801V19.5201C14.4 20.0129 14.4048 20.1185 14.4224 20.1873C14.4568 20.331 14.5303 20.4624 14.6348 20.5669C14.7393 20.6714 14.8707 20.7449 15.0144 20.7793C15.0832 20.7953 15.1904 20.8001 15.68 20.8001H19.52C20.0128 20.8001 20.1184 20.7953 20.1872 20.7777C20.3307 20.7435 20.462 20.6702 20.5665 20.566C20.671 20.4618 20.7446 20.3307 20.7792 20.1873C20.7952 20.1185 20.8 20.0113 20.8 19.5201V15.6801C20.8 15.1889 20.7936 15.0833 20.7776 15.0145C20.7434 14.871 20.6701 14.7397 20.5659 14.6352C20.4617 14.5308 20.3306 14.4571 20.1872 14.4225C20.1184 14.4065 20.0112 14.4001 19.52 14.4001H15.68ZM8.40001 1.6001C8.76481 1.6001 9.08161 1.6001 9.36001 1.6673C9.79059 1.77003 10.1844 1.98984 10.4978 2.30243C10.8112 2.61501 11.0321 3.0082 11.136 3.4385C11.2 3.7185 11.2 4.0353 11.2 4.4001V8.4001C11.2 8.7649 11.2 9.0817 11.1344 9.3601C11.0314 9.79108 10.8111 10.1851 10.4979 10.4986C10.1848 10.8121 9.7909 11.0327 9.36001 11.1361C9.08161 11.2001 8.76481 11.2001 8.40001 11.2001H4.40001C4.03521 11.2001 3.71841 11.2001 3.44001 11.1345C3.00932 11.0313 2.6156 10.8108 2.30243 10.4977C1.98926 10.1845 1.76885 9.79079 1.66561 9.3601C1.60001 9.0817 1.60001 8.7649 1.60001 8.4001V4.4001C1.60001 4.0353 1.60001 3.7185 1.66721 3.4401C1.77046 3.01011 1.9905 2.617 2.30305 2.30417C2.6156 1.99133 3.00851 1.77094 3.43841 1.6673C3.71841 1.6001 4.03521 1.6001 4.40001 1.6001H8.40001ZM19.6 1.6001C19.9648 1.6001 20.2816 1.6001 20.56 1.6673C20.9903 1.77029 21.3837 1.99021 21.6969 2.30278C22.01 2.61535 22.2306 3.0084 22.3344 3.4385C22.4016 3.7185 22.4 4.0353 22.4 4.4001V8.4001C22.4 8.7649 22.4 9.0817 22.3344 9.3601C22.2314 9.79108 22.0111 10.1851 21.6979 10.4986C21.3848 10.8121 20.9909 11.0327 20.56 11.1361C20.2816 11.2001 19.9648 11.2001 19.6 11.2001H15.6C15.2352 11.2001 14.9184 11.2001 14.64 11.1345C14.2093 11.0313 13.8156 10.8108 13.5024 10.4977C13.1893 10.1845 12.9689 9.79079 12.8656 9.3601C12.8 9.0817 12.8 8.7649 12.8 8.4001V4.4001C12.8 4.0353 12.8 3.7185 12.8672 3.4401C12.9705 3.01011 13.1905 2.617 13.5031 2.30417C13.8156 1.99133 14.2085 1.77094 14.6384 1.6673C14.9184 1.6001 15.2352 1.6001 15.6 1.6001H19.6ZM4.48001 3.2001C3.98881 3.2001 3.88321 3.2049 3.81441 3.2225C3.67068 3.25687 3.53928 3.33038 3.43478 3.43487C3.33029 3.53937 3.25678 3.67077 3.22241 3.8145C3.20641 3.8833 3.20001 3.9905 3.20001 4.4801V8.3201C3.20001 8.8129 3.20481 8.9185 3.22241 8.9873C3.25678 9.13103 3.33029 9.26242 3.43478 9.36692C3.53928 9.47142 3.67068 9.54493 3.81441 9.5793C3.88321 9.5953 3.99041 9.6001 4.48001 9.6001H8.32001C8.81281 9.6001 8.91841 9.5953 8.98721 9.5777C9.13073 9.54346 9.26199 9.47018 9.36647 9.36599C9.47095 9.26179 9.54458 9.13073 9.57921 8.9873C9.59521 8.9185 9.60001 8.8113 9.60001 8.3201V4.4801C9.60001 3.9889 9.59521 3.8833 9.57761 3.8145C9.54336 3.67097 9.47009 3.53971 9.3659 3.43523C9.2617 3.33075 9.13064 3.25713 8.98721 3.2225C8.91841 3.2065 8.81121 3.2001 8.32001 3.2001H4.48001ZM15.68 3.2001C15.1888 3.2001 15.0832 3.2049 15.0144 3.2225C14.8707 3.25687 14.7393 3.33038 14.6348 3.43487C14.5303 3.53937 14.4568 3.67077 14.4224 3.8145C14.4064 3.8833 14.4 3.9905 14.4 4.4801V8.3201C14.4 8.8129 14.4048 8.9185 14.4224 8.9873C14.4568 9.13103 14.5303 9.26242 14.6348 9.36692C14.7393 9.47142 14.8707 9.54493 15.0144 9.5793C15.0832 9.5953 15.1904 9.6001 15.68 9.6001H19.52C20.0128 9.6001 20.1184 9.5953 20.1872 9.5777C20.3307 9.54346 20.462 9.47018 20.5665 9.36599C20.671 9.26179 20.7446 9.13073 20.7792 8.9873C20.7952 8.9185 20.8 8.8113 20.8 8.3201V4.4801C20.8 3.9889 20.7936 3.8833 20.7776 3.8145C20.7434 3.67097 20.6701 3.53971 20.5659 3.43523C20.4617 3.33075 20.3306 3.25713 20.1872 3.2225C20.1184 3.2065 20.0112 3.2001 19.52 3.2001H15.68Z" fill="#787474"/>
</svg>
