<svg width="16" height="16" viewBox="0 0 16 16" fill="none" xmlns="http://www.w3.org/2000/svg">
<path fill-rule="evenodd" clip-rule="evenodd" d="M1.33325 4.57125C1.33325 3.71248 1.6744 2.88888 2.28164 2.28164C2.88888 1.6744 3.71248 1.33325 4.57125 1.33325H7.99992C8.17673 1.33325 8.3463 1.40349 8.47132 1.52851C8.59635 1.65354 8.66658 1.82311 8.66658 1.99992C8.66658 2.17673 8.59635 2.3463 8.47132 2.47132C8.3463 2.59635 8.17673 2.66659 7.99992 2.66659H4.57125C4.0661 2.66659 3.58164 2.86725 3.22445 3.22445C2.86725 3.58164 2.66659 4.0661 2.66659 4.57125V11.4286C2.66659 11.9337 2.86725 12.4182 3.22445 12.7754C3.58164 13.1326 4.0661 13.3333 4.57125 13.3333H11.4286C11.9337 13.3333 12.4182 13.1326 12.7754 12.7754C13.1326 12.4182 13.3333 11.9337 13.3333 11.4286V7.99992C13.3333 7.82311 13.4035 7.65354 13.5285 7.52851C13.6535 7.40349 13.8231 7.33325 13.9999 7.33325C14.1767 7.33325 14.3463 7.40349 14.4713 7.52851C14.5963 7.65354 14.6666 7.82311 14.6666 7.99992V11.4286C14.6666 12.2874 14.3254 13.111 13.7182 13.7182C13.111 14.3254 12.2874 14.6666 11.4286 14.6666H4.57125C3.71248 14.6666 2.88888 14.3254 2.28164 13.7182C1.6744 13.111 1.33325 12.2874 1.33325 11.4286V4.57125Z" fill="#8E8E8E"/>
<path fill-rule="evenodd" clip-rule="evenodd" d="M10.0913 8.81265L8.62131 9.69932L7.93264 8.55732L9.40264 7.67065L9.40464 7.66932C9.46099 7.63539 9.51293 7.59464 9.55931 7.54799L12.8993 4.19065C12.9328 4.15692 12.965 4.12201 12.996 4.08599C13.2166 3.82865 13.5433 3.31932 13.148 2.92199C12.814 2.58599 12.3353 2.90332 12.0253 3.17599C11.9422 3.24929 11.8621 3.32603 11.7853 3.40599L11.7626 3.42865L8.46931 6.73865C8.39111 6.81639 8.32983 6.90944 8.28931 7.01199L7.73997 8.39399C7.72956 8.41999 7.72759 8.44862 7.73436 8.4758C7.74114 8.50298 7.7563 8.52734 7.7777 8.54542C7.7991 8.5635 7.82565 8.57438 7.85358 8.57652C7.88151 8.57865 7.90874 8.57194 7.93264 8.55732L8.62131 9.69932C7.41797 10.4247 5.98131 9.20599 6.50131 7.90065L7.05131 6.51932C7.15839 6.24939 7.31946 6.00416 7.52464 5.79865L10.8173 2.48799L10.8366 2.46865C10.9346 2.36865 11.264 2.03132 11.6633 1.78865C11.8813 1.65732 12.2293 1.48332 12.6593 1.44999C13.1526 1.41065 13.6793 1.56599 14.0926 1.98132C14.409 2.29385 14.608 2.70588 14.656 3.14799C14.689 3.49258 14.6363 3.84 14.5026 4.15932C14.3093 4.63732 13.9866 4.98865 13.8446 5.13065L10.5046 8.48799C10.3802 8.61288 10.2424 8.7211 10.0913 8.81265ZM13.06 4.06199C13.06 4.06199 13.0573 4.06399 13.0513 4.06599L13.06 4.06199Z" fill="#8E8E8E"/>
</svg>
