<svg width="43" height="43" viewBox="0 0 43 43" fill="none" xmlns="http://www.w3.org/2000/svg">
<path d="M7.01562 4.54785H35.0791C36.4337 4.54792 37.5458 5.66102 37.5459 7.01562V28.0635C37.5457 29.418 36.4336 30.5302 35.0791 30.5303H23.9492L17.1543 37.3252C17.0406 37.4389 16.9682 37.4834 16.9199 37.5049C16.8761 37.5244 16.8038 37.5459 16.6621 37.5459H15.7852C15.496 37.5458 15.3356 37.4545 15.25 37.3691C15.1645 37.2836 15.0723 37.1227 15.0723 36.833V30.5303H7.01562C5.66109 30.5302 4.54802 29.418 4.54785 28.0635V7.01562C4.5479 5.66102 5.66102 4.5479 7.01562 4.54785ZM5.97559 29.1035H16.499V36.0127L23.4082 29.1035H36.1191V5.97559H5.97559V29.1035ZM26.9551 11.5645L25.1904 15.3457L24.5 16.8262H28.7764V21.7607H23.8418V15.6641L25.7461 11.5645H26.9551ZM16.4316 11.5645L14.667 15.3457L13.9766 16.8262H18.2529V21.7607H13.3184V15.6641L15.2227 11.5645H16.4316Z" fill="#168D16" stroke="#168D16" stroke-width="2.08105"/>
</svg>
