<svg width="260" height="84" viewBox="0 0 260 84" fill="none" xmlns="http://www.w3.org/2000/svg">
<rect width="260" height="84" fill="#1E1E1E"/>
<rect width="260" height="84" fill="white"/>
<path d="M51.3437 18C43.9207 19.4973 49.3664 25.365 43.7064 29.178C44.2042 29.1276 44.7076 29.1058 45.2119 29.1138C46.8852 29.1406 48.5799 29.496 50.2039 30.2151C50.7076 30.4373 51.1965 30.6914 51.6678 30.9758C52.9116 26.0986 47.8566 21.0747 51.3437 18ZM32.5121 20.5425C28.3249 26.8457 36.3115 27.1511 35.0193 33.8362C36.8075 31.6527 39.2487 30.1482 41.9182 29.4894C39.3494 25.1606 32.2206 25.1827 32.5121 20.5425ZM63.0548 28.2888C59.7113 28.3784 58.3832 33.0466 53.1318 32.0097C55.3251 33.7992 56.8335 36.2473 57.4944 38.9244C61.8405 36.3644 61.8145 29.22 66.4608 29.5119C65.0812 28.5956 63.9894 28.2637 63.0548 28.2888ZM44.7721 31.0272C42.342 31.0744 39.9921 31.9332 38.1044 33.4543L40.021 37.1685L35.9279 35.8169C35.5541 36.3667 35.2307 36.9491 34.9616 37.5569C34.0652 39.5815 33.8314 41.7267 34.1624 43.756L38.7626 43.9743L35.2698 47.0883C36.3791 49.2067 38.1887 50.9768 40.5507 52.0223C40.8637 52.1612 41.1829 52.2855 41.5074 52.3948L44.0273 48.4654L44.9617 52.9664C47.7662 52.9741 50.482 51.8994 52.5218 49.968L50.5508 46.1541L54.4963 47.4545C54.6858 47.1232 54.8583 46.7825 55.013 46.4336C56.0142 44.1725 56.19 41.7596 55.6746 39.5281L51.8093 39.3483L54.6535 36.8091C53.541 34.7346 51.7529 33.0009 49.4273 31.9713C49.2873 31.9094 49.146 31.8505 49.0035 31.7946L46.3455 35.9359L45.3279 31.0306C45.2765 31.0289 45.2252 31.0282 45.1738 31.0273C45.0402 31.0252 44.9053 31.0247 44.7721 31.0272ZM32.1687 35.1332C27.8898 35.2076 23.6953 38.713 21 35.6565C22.4971 43.077 28.362 37.6391 32.1752 43.2905C31.9539 41.136 32.2711 38.898 33.2086 36.78C33.4294 36.282 33.6814 35.7985 33.9632 35.3322C33.3651 35.1812 32.7674 35.1228 32.1687 35.1332ZM57.7996 40.6774C58.0347 42.9088 57.6794 45.1627 56.7692 47.2135L56.7499 47.252C56.5321 47.7387 56.2844 48.2115 56.0082 48.6676C60.8903 49.9254 65.9223 44.8526 69.0004 48.3434C67.5002 40.907 61.6121 46.3876 57.7996 40.6774ZM32.4895 45.0881C28.1623 47.6578 28.1823 54.7827 23.5425 54.4909C29.8524 58.6826 30.1503 50.6773 36.8556 51.9903C34.663 50.2043 33.1542 47.7612 32.4895 45.0881ZM54.9938 50.1122C53.2057 52.3168 50.7576 53.8351 48.0756 54.5008C50.6381 58.8424 57.7832 58.8158 57.4913 63.4606C61.6896 57.1407 53.6491 56.8492 54.9938 50.1122ZM38.3323 53.0306C37.0948 57.9057 42.1423 62.9265 38.6566 66.0002C46.0844 64.5017 40.6284 58.6252 46.3068 54.8121C44.1454 55.0386 41.8999 54.7197 39.7738 53.7785C39.2782 53.5596 38.7967 53.3098 38.3323 53.0306Z" fill="url(#paint0_linear_0_1)"/>
<path d="M80.2644 51.5L86.4324 33.62H90.6564L96.8244 51.5H93.2724L92.0004 47.66H85.0884L83.7924 51.5H80.2644ZM86.0244 44.78H91.0644L88.0884 35.876H89.0004L86.0244 44.78ZM103.758 51.788C102.366 51.788 101.15 51.46 100.11 50.804C99.0863 50.132 98.3823 49.228 97.9983 48.092L100.35 46.964C100.686 47.7 101.15 48.276 101.742 48.692C102.35 49.108 103.022 49.316 103.758 49.316C104.334 49.316 104.79 49.188 105.126 48.932C105.462 48.676 105.63 48.34 105.63 47.924C105.63 47.668 105.558 47.46 105.414 47.3C105.286 47.124 105.102 46.98 104.862 46.868C104.638 46.74 104.39 46.636 104.118 46.556L101.982 45.956C100.878 45.636 100.038 45.148 99.4623 44.492C98.9023 43.836 98.6223 43.06 98.6223 42.164C98.6223 41.364 98.8223 40.668 99.2223 40.076C99.6383 39.468 100.206 38.996 100.926 38.66C101.662 38.324 102.502 38.156 103.446 38.156C104.678 38.156 105.766 38.452 106.71 39.044C107.654 39.636 108.326 40.468 108.726 41.54L106.326 42.668C106.102 42.076 105.726 41.604 105.198 41.252C104.67 40.9 104.078 40.724 103.422 40.724C102.894 40.724 102.478 40.844 102.174 41.084C101.87 41.324 101.718 41.636 101.718 42.02C101.718 42.26 101.782 42.468 101.91 42.644C102.038 42.82 102.214 42.964 102.438 43.076C102.678 43.188 102.95 43.292 103.254 43.388L105.342 44.012C106.414 44.332 107.238 44.812 107.814 45.452C108.406 46.092 108.702 46.876 108.702 47.804C108.702 48.588 108.494 49.284 108.078 49.892C107.662 50.484 107.086 50.948 106.35 51.284C105.614 51.62 104.75 51.788 103.758 51.788ZM117.31 51.644C115.838 51.644 114.694 51.244 113.878 50.444C113.078 49.628 112.678 48.484 112.678 47.012V41.252H110.422V38.444H110.662C111.302 38.444 111.798 38.276 112.15 37.94C112.502 37.604 112.678 37.116 112.678 36.476V35.468H115.822V38.444H118.822V41.252H115.822V46.844C115.822 47.276 115.894 47.644 116.038 47.948C116.198 48.252 116.438 48.484 116.758 48.644C117.094 48.804 117.518 48.884 118.03 48.884C118.142 48.884 118.27 48.876 118.414 48.86C118.574 48.844 118.726 48.828 118.87 48.812V51.5C118.646 51.532 118.39 51.564 118.102 51.596C117.814 51.628 117.55 51.644 117.31 51.644ZM121.512 51.5V38.444H124.464V41.348L124.224 40.916C124.528 39.94 125 39.26 125.64 38.876C126.296 38.492 127.08 38.3 127.992 38.3H128.76V41.084H127.632C126.736 41.084 126.016 41.364 125.472 41.924C124.928 42.468 124.656 43.236 124.656 44.228V51.5H121.512ZM137.113 51.788C135.833 51.788 134.665 51.492 133.609 50.9C132.569 50.308 131.737 49.5 131.113 48.476C130.505 47.452 130.201 46.284 130.201 44.972C130.201 43.66 130.505 42.492 131.113 41.468C131.737 40.444 132.569 39.636 133.609 39.044C134.649 38.452 135.817 38.156 137.113 38.156C138.393 38.156 139.553 38.452 140.593 39.044C141.633 39.636 142.457 40.444 143.065 41.468C143.689 42.476 144.001 43.644 144.001 44.972C144.001 46.284 143.689 47.452 143.065 48.476C142.441 49.5 141.609 50.308 140.569 50.9C139.529 51.492 138.377 51.788 137.113 51.788ZM137.113 48.908C137.817 48.908 138.433 48.74 138.961 48.404C139.505 48.068 139.929 47.604 140.233 47.012C140.553 46.404 140.713 45.724 140.713 44.972C140.713 44.204 140.553 43.532 140.233 42.956C139.929 42.364 139.505 41.9 138.961 41.564C138.433 41.212 137.817 41.036 137.113 41.036C136.393 41.036 135.761 41.212 135.217 41.564C134.673 41.9 134.241 42.364 133.921 42.956C133.617 43.532 133.465 44.204 133.465 44.972C133.465 45.724 133.617 46.404 133.921 47.012C134.241 47.604 134.673 48.068 135.217 48.404C135.761 48.74 136.393 48.908 137.113 48.908ZM146.625 51.5V33.332H149.769V51.5H146.625ZM168.808 56.3V38.444H171.76V41.036L171.472 40.388C171.92 39.684 172.528 39.14 173.296 38.756C174.064 38.356 174.952 38.156 175.96 38.156C177.192 38.156 178.304 38.46 179.296 39.068C180.288 39.676 181.072 40.492 181.648 41.516C182.24 42.54 182.536 43.692 182.536 44.972C182.536 46.236 182.248 47.388 181.672 48.428C181.096 49.468 180.312 50.292 179.32 50.9C178.328 51.492 177.2 51.788 175.936 51.788C174.992 51.788 174.12 51.604 173.32 51.236C172.536 50.852 171.912 50.308 171.448 49.604L171.952 48.98V56.3H168.808ZM175.576 48.908C176.296 48.908 176.936 48.74 177.496 48.404C178.056 48.068 178.488 47.604 178.792 47.012C179.112 46.42 179.272 45.74 179.272 44.972C179.272 44.204 179.112 43.532 178.792 42.956C178.488 42.364 178.056 41.9 177.496 41.564C176.936 41.212 176.296 41.036 175.576 41.036C174.888 41.036 174.264 41.204 173.704 41.54C173.16 41.876 172.728 42.348 172.408 42.956C172.104 43.548 171.952 44.22 171.952 44.972C171.952 45.74 172.104 46.42 172.408 47.012C172.728 47.604 173.16 48.068 173.704 48.404C174.264 48.74 174.888 48.908 175.576 48.908Z" fill="#43157C"/>
<path d="M159.296 51.788C158.016 51.788 156.848 51.492 155.792 50.9C154.752 50.308 153.92 49.5 153.296 48.476C152.688 47.452 152.384 46.284 152.384 44.972C152.384 43.66 152.688 42.492 153.296 41.468C153.92 40.444 154.752 39.636 155.792 39.044C156.832 38.452 158 38.156 159.296 38.156C160.576 38.156 161.736 38.452 162.776 39.044C163.816 39.636 164.64 40.444 165.248 41.468C165.872 42.476 166.184 43.644 166.184 44.972C166.184 46.284 165.872 47.452 165.248 48.476C164.624 49.5 163.792 50.308 162.752 50.9C161.712 51.492 160.56 51.788 159.296 51.788ZM159.296 48.908C160 48.908 160.616 48.74 161.144 48.404C161.688 48.068 162.112 47.604 162.416 47.012C162.736 46.404 162.896 45.724 162.896 44.972C162.896 44.204 162.736 43.532 162.416 42.956C162.112 42.364 161.688 41.9 161.144 41.564C160.616 41.212 160 41.036 159.296 41.036C158.576 41.036 157.944 41.212 157.4 41.564C156.856 41.9 156.424 42.364 156.104 42.956C155.8 43.532 155.648 44.204 155.648 44.972C155.648 45.724 155.8 46.404 156.104 47.012C156.424 47.604 156.856 48.068 157.4 48.404C157.944 48.74 158.576 48.908 159.296 48.908Z" fill="#FF7F3B"/>
<defs>
<linearGradient id="paint0_linear_0_1" x1="45.0002" y1="18" x2="45.0002" y2="66.0002" gradientUnits="userSpaceOnUse">
<stop stop-color="#FFAE00"/>
<stop offset="1" stop-color="#FF7F3B"/>
</linearGradient>
</defs>
</svg>
