<svg width="28" height="28" viewBox="0 0 28 28" fill="none" xmlns="http://www.w3.org/2000/svg">
<path d="M7.36154 10.2407C7.53446 8.68052 8.27673 7.23893 9.44623 6.19189C10.6157 5.14485 12.1303 4.56592 13.7 4.56592C15.2698 4.56592 16.7844 5.14485 17.9539 6.19189C19.1234 7.23893 19.8656 8.68052 20.0386 10.2407L20.3263 12.8277L20.3331 12.8928C20.4805 14.176 20.8984 15.4134 21.5593 16.5233L21.5935 16.5803L22.2522 17.6798C22.8516 18.6776 23.1507 19.1765 23.0857 19.5863C23.0427 19.8584 22.9028 20.1057 22.6918 20.2828C22.3733 20.5499 21.791 20.5499 20.6277 20.5499H6.77244C5.60794 20.5499 5.0257 20.5499 4.70831 20.2839C4.49665 20.1068 4.35632 19.859 4.3133 19.5863C4.24936 19.1765 4.54848 18.6776 5.14671 17.6798L5.80773 16.5792L5.84198 16.5221C6.50227 15.4125 6.91979 14.1755 7.06699 12.8928L7.07384 12.8277L7.36154 10.2407Z" stroke="#989595" stroke-width="1.14166"/>
<path d="M10.3914 21.0133C10.5866 21.8627 11.017 22.6139 11.6152 23.1482C12.2135 23.6848 12.9464 23.9748 13.6999 23.9748C14.4534 23.9748 15.1863 23.6848 15.7846 23.1494C16.3828 22.6128 16.8121 21.8627 17.0084 21.0133" stroke="#989595" stroke-width="1.14166" stroke-linecap="round"/>
</svg>
