<svg width="44" height="44" viewBox="0 0 44 44" fill="none" xmlns="http://www.w3.org/2000/svg">
<path d="M23.1736 5.78247C27.6976 5.78248 31.8195 7.21159 34.3884 8.45923L34.3933 8.46118C34.9097 8.70558 35.4128 8.97663 35.9011 9.27271L32.2478 14.6145L32.0076 14.967L32.3054 15.2727C34.7811 17.8027 37.0971 21.1029 38.6287 24.5461C38.1824 24.4067 37.7246 24.2938 37.2566 24.2102C35.8356 21.3099 33.9837 18.6412 31.7615 16.2961L31.5212 16.0422L31.196 16.1682C26.1559 18.1172 20.087 18.1172 15.0457 16.1702L14.7166 16.0432L14.4763 16.302C12.3799 18.5629 10.4266 21.337 9.02515 24.2249C7.55889 27.2477 6.75269 30.2791 6.90308 32.9172C7.04948 35.4844 8.09613 37.7109 10.4656 39.3518C12.9101 41.0439 16.9194 42.2219 23.1736 42.2219H23.1746C24.3047 42.2206 25.363 42.1803 26.3494 42.1057C26.6259 42.4665 26.9242 42.8097 27.2419 43.134C25.8912 43.2677 24.5343 43.3328 23.1765 43.3254H23.1736C16.8064 43.3254 12.5404 42.1296 9.83765 40.2581C7.15884 38.4029 5.9656 35.849 5.80151 32.9797C5.63619 30.0878 6.51899 26.8648 8.03296 23.7444C9.54453 20.629 11.6678 17.6527 13.9353 15.2668L14.2244 14.9631L13.988 14.6165L10.3601 9.27661C10.5567 9.15971 10.7763 9.03393 11.0183 8.90356C11.2393 8.78546 11.4779 8.6634 11.7341 8.53735C14.3201 7.27239 18.5549 5.78247 23.1736 5.78247ZM33.2664 9.67896C30.6477 9.8675 27.6062 10.428 24.6082 11.2249L23.3269 11.5803C21.022 12.2461 18.4327 12.151 15.9939 11.7014C15.3807 11.5879 14.7713 11.452 14.1677 11.2952L12.8298 10.9475L13.6072 12.0911L15.6648 15.1213L15.7605 15.262L15.9207 15.3196C20.4452 16.93 25.784 16.9297 30.3074 15.3215L30.4666 15.2649L30.5623 15.1252L33.7332 10.4915L34.3425 9.60181L33.2664 9.67896ZM23.1726 6.88501C19.3893 6.88501 15.8758 7.93946 13.4236 8.98071L12.0925 9.54517L13.4783 9.95825C14.3512 10.218 15.2641 10.4445 16.1931 10.6165H16.1941C18.5413 11.0487 20.9424 11.122 23.0203 10.5198H23.0212C25.2988 9.856 27.6156 9.33418 29.9578 8.95728L30.0251 7.94458C28.0162 7.33972 25.659 6.88502 23.1726 6.88501Z" fill="#9D6600" stroke="#9D6600" stroke-width="1.04052"/>
<path fill-rule="evenodd" clip-rule="evenodd" d="M23.1296 28.8425C24.2239 28.8425 25.2229 29.2531 25.9807 29.9283C25.5808 30.6231 25.2601 31.3605 25.0246 32.1267C24.8422 31.7823 24.5694 31.4941 24.2355 31.2932C23.9016 31.0923 23.5193 30.9861 23.1296 30.9862V35.2736C23.6837 35.2736 24.1886 35.0636 24.5691 34.7184C24.527 35.5202 24.5752 36.3241 24.7127 37.1151C24.2088 37.315 23.6717 37.4176 23.1296 37.4173V38.4892H20.9859V37.4173C20.0991 37.4175 19.2341 37.1426 18.51 36.6307C17.7859 36.1187 17.2384 35.3948 16.9429 34.5587C16.8482 34.2906 16.8639 33.996 16.9865 33.7395C17.1091 33.483 17.3286 33.2857 17.5967 33.191C17.8648 33.0964 18.1595 33.1121 18.4159 33.2347C18.6724 33.3573 18.8697 33.5768 18.9644 33.8449C19.1122 34.2628 19.386 34.6246 19.7481 34.8805C20.1101 35.1364 20.5426 35.2738 20.9859 35.2736V30.9862C19.8488 30.9862 18.7583 30.5345 17.9542 29.7305C17.1502 28.9264 16.6985 27.8359 16.6985 26.6988C16.6985 25.5618 17.1502 24.4712 17.9542 23.6672C18.7583 22.8632 19.8488 22.4114 20.9859 22.4114V21.3396H23.1296V22.4114C24.0164 22.4113 24.8814 22.6861 25.6055 23.1981C26.3296 23.7101 26.8771 24.434 27.1726 25.2701C27.2195 25.4028 27.2397 25.5435 27.2322 25.684C27.2248 25.8246 27.1897 25.9623 27.1289 26.0893C27.0682 26.2163 26.9831 26.3301 26.8784 26.4242C26.7737 26.5183 26.6515 26.5909 26.5188 26.6378C26.386 26.6846 26.2454 26.7049 26.1048 26.6974C25.9642 26.6899 25.8265 26.6548 25.6995 26.5941C25.5725 26.5334 25.4587 26.4482 25.3646 26.3436C25.2705 26.2389 25.198 26.1167 25.1511 25.9839C25.0032 25.566 24.7294 25.2041 24.3674 24.9483C24.0054 24.6924 23.5729 24.555 23.1296 24.5551V28.8425ZM20.9859 24.5551C20.4173 24.5551 19.8721 24.781 19.4701 25.183C19.068 25.585 18.8422 26.1303 18.8422 26.6988C18.8422 27.2674 19.068 27.8126 19.4701 28.2147C19.8721 28.6167 20.4173 28.8425 20.9859 28.8425V24.5551Z" fill="#A27109"/>
<path d="M36.3456 35.7239L37.6211 34.5802L39.052 36.1773L35.2738 39.5622L31.4966 36.1751L32.9275 34.5792L34.2019 35.7228V30.9863H36.3456V35.7239Z" fill="#A27109"/>
<path fill-rule="evenodd" clip-rule="evenodd" d="M35.2738 43.8488C37.5479 43.8488 39.729 42.9454 41.3371 41.3373C42.9451 39.7292 43.8486 37.5482 43.8486 35.274C43.8486 32.9998 42.9451 30.8188 41.3371 29.2107C39.729 27.6026 37.5479 26.6992 35.2738 26.6992C32.9996 26.6992 30.8186 27.6026 29.2105 29.2107C27.6024 30.8188 26.699 32.9998 26.699 35.274C26.699 37.5482 27.6024 39.7292 29.2105 41.3373C30.8186 42.9454 32.9996 43.8488 35.2738 43.8488ZM35.2738 41.7051C36.9794 41.7051 38.6152 41.0275 39.8212 39.8215C41.0273 38.6154 41.7049 36.9796 41.7049 35.274C41.7049 33.5684 41.0273 31.9326 39.8212 30.7265C38.6152 29.5205 36.9794 28.8429 35.2738 28.8429C33.5681 28.8429 31.9324 29.5205 30.7263 30.7265C29.5202 31.9326 28.8427 33.5684 28.8427 35.274C28.8427 36.9796 29.5202 38.6154 30.7263 39.8215C31.9324 41.0275 33.5681 41.7051 35.2738 41.7051Z" fill="#A27109"/>
</svg>
