<svg width="24" height="24" viewBox="0 0 24 24" fill="none" xmlns="http://www.w3.org/2000/svg">
<path d="M8.40001 12.8C8.76481 12.8 9.08161 12.8 9.36001 12.8672C9.79059 12.9699 10.1844 13.1897 10.4978 13.5023C10.8112 13.8149 11.0321 14.2081 11.136 14.6384C11.2 14.9184 11.2 15.2352 11.2 15.6V19.6C11.2 19.9648 11.2 20.2816 11.1344 20.56C11.0314 20.991 10.8111 21.385 10.4979 21.6985C10.1848 22.012 9.7909 22.2326 9.36001 22.336C9.08161 22.4 8.76481 22.4 8.40001 22.4H4.40001C4.03521 22.4 3.71841 22.4 3.44001 22.3344C3.00981 22.231 2.61657 22.0107 2.30372 21.6979C1.99087 21.385 1.77058 20.9918 1.66721 20.5616C1.60001 20.2816 1.60001 19.9648 1.60001 19.6V15.6C1.60001 15.2352 1.60001 14.9184 1.66721 14.64C1.77046 14.21 1.9905 13.8169 2.30305 13.504C2.6156 13.1912 3.00851 12.9708 3.43841 12.8672C3.71841 12.8 4.03521 12.8 4.40001 12.8H8.40001ZM19.6 12.8C19.9648 12.8 20.2816 12.8 20.56 12.8672C20.9903 12.9702 21.3837 13.1901 21.6969 13.5027C22.01 13.8152 22.2306 14.2083 22.3344 14.6384C22.4016 14.9184 22.4 15.2352 22.4 15.6V19.6C22.4 19.9648 22.4 20.2816 22.3344 20.56C22.2313 20.9905 22.0111 21.384 21.6983 21.6972C21.3854 22.0103 20.992 22.2309 20.5616 22.3344C20.2816 22.4016 19.9648 22.4 19.6 22.4H15.6C15.2352 22.4 14.9184 22.4 14.64 22.3344C14.2098 22.231 13.8166 22.0107 13.5037 21.6979C13.1909 21.385 12.9706 20.9918 12.8672 20.5616C12.8 20.2816 12.8 19.9648 12.8 19.6V15.6C12.8 15.2352 12.8 14.9184 12.8672 14.64C12.9705 14.21 13.1905 13.8169 13.5031 13.504C13.8156 13.1912 14.2085 12.9708 14.6384 12.8672C14.9184 12.8 15.2352 12.8 15.6 12.8H19.6ZM4.48001 14.4C3.98881 14.4 3.88321 14.4048 3.81441 14.4224C3.67068 14.4567 3.53928 14.5303 3.43478 14.6348C3.33029 14.7392 3.25678 14.8706 3.22241 15.0144C3.20641 15.0832 3.20001 15.1904 3.20001 15.68V19.52C3.20001 20.0128 3.20481 20.1184 3.22241 20.1872C3.25678 20.3309 3.33029 20.4623 3.43478 20.5668C3.53928 20.6713 3.67068 20.7448 3.81441 20.7792C3.88321 20.7952 3.99041 20.8 4.48001 20.8H8.32001C8.81281 20.8 8.91841 20.7952 8.98721 20.7776C9.13073 20.7433 9.26199 20.6701 9.36647 20.5659C9.47095 20.4617 9.54458 20.3306 9.57921 20.1872C9.59521 20.1184 9.60001 20.0112 9.60001 19.52V15.68C9.60001 15.1888 9.59521 15.0832 9.57761 15.0144C9.54336 14.8708 9.47009 14.7396 9.3659 14.6351C9.2617 14.5306 9.13064 14.457 8.98721 14.4224C8.91841 14.4064 8.81121 14.4 8.32001 14.4H4.48001ZM15.68 14.4C15.1888 14.4 15.0832 14.4048 15.0144 14.4224C14.8707 14.4567 14.7393 14.5303 14.6348 14.6348C14.5303 14.7392 14.4568 14.8706 14.4224 15.0144C14.4064 15.0832 14.4 15.1904 14.4 15.68V19.52C14.4 20.0128 14.4048 20.1184 14.4224 20.1872C14.4568 20.3309 14.5303 20.4623 14.6348 20.5668C14.7393 20.6713 14.8707 20.7448 15.0144 20.7792C15.0832 20.7952 15.1904 20.8 15.68 20.8H19.52C20.0128 20.8 20.1184 20.7952 20.1872 20.7776C20.3307 20.7433 20.462 20.6701 20.5665 20.5659C20.6709 20.4617 20.7446 20.3306 20.7792 20.1872C20.7952 20.1184 20.8 20.0112 20.8 19.52V15.68C20.8 15.1888 20.7936 15.0832 20.7776 15.0144C20.7434 14.8708 20.6701 14.7396 20.5659 14.6351C20.4617 14.5306 20.3306 14.457 20.1872 14.4224C20.1184 14.4064 20.0112 14.4 19.52 14.4H15.68ZM8.40001 1.59998C8.76481 1.59998 9.08161 1.59998 9.36001 1.66718C9.79059 1.7699 10.1844 1.98972 10.4978 2.3023C10.8112 2.61489 11.0321 3.00807 11.136 3.43838C11.2 3.71838 11.2 4.03518 11.2 4.39998V8.39998C11.2 8.76478 11.2 9.08158 11.1344 9.35998C11.0314 9.79096 10.8111 10.185 10.4979 10.4985C10.1848 10.812 9.7909 11.0326 9.36001 11.136C9.08161 11.2 8.76481 11.2 8.40001 11.2H4.40001C4.03521 11.2 3.71841 11.2 3.44001 11.1344C3.00932 11.0311 2.6156 10.8107 2.30243 10.4976C1.98926 10.1844 1.76885 9.79066 1.66561 9.35998C1.60001 9.08158 1.60001 8.76478 1.60001 8.39998V4.39998C1.60001 4.03518 1.60001 3.71838 1.66721 3.43998C1.77046 3.00998 1.9905 2.61688 2.30305 2.30404C2.6156 1.99121 3.00851 1.77081 3.43841 1.66718C3.71841 1.59998 4.03521 1.59998 4.40001 1.59998H8.40001ZM19.6 1.59998C19.9648 1.59998 20.2816 1.59998 20.56 1.66718C20.9903 1.77016 21.3837 1.99009 21.6969 2.30266C22.01 2.61523 22.2306 3.00828 22.3344 3.43838C22.4016 3.71838 22.4 4.03518 22.4 4.39998V8.39998C22.4 8.76478 22.4 9.08158 22.3344 9.35998C22.2314 9.79096 22.0111 10.185 21.6979 10.4985C21.3848 10.812 20.9909 11.0326 20.56 11.136C20.2816 11.2 19.9648 11.2 19.6 11.2H15.6C15.2352 11.2 14.9184 11.2 14.64 11.1344C14.2093 11.0311 13.8156 10.8107 13.5024 10.4976C13.1893 10.1844 12.9689 9.79066 12.8656 9.35998C12.8 9.08158 12.8 8.76478 12.8 8.39998V4.39998C12.8 4.03518 12.8 3.71838 12.8672 3.43998C12.9705 3.00998 13.1905 2.61688 13.5031 2.30404C13.8156 1.99121 14.2085 1.77081 14.6384 1.66718C14.9184 1.59998 15.2352 1.59998 15.6 1.59998H19.6ZM4.48001 3.19998C3.98881 3.19998 3.88321 3.20478 3.81441 3.22238C3.67068 3.25675 3.53928 3.33026 3.43478 3.43475C3.33029 3.53925 3.25678 3.67065 3.22241 3.81438C3.20641 3.88318 3.20001 3.99038 3.20001 4.47998V8.31998C3.20001 8.81278 3.20481 8.91838 3.22241 8.98718C3.25678 9.1309 3.33029 9.2623 3.43478 9.3668C3.53928 9.47129 3.67068 9.54481 3.81441 9.57918C3.88321 9.59518 3.99041 9.59998 4.48001 9.59998H8.32001C8.81281 9.59998 8.91841 9.59518 8.98721 9.57758C9.13073 9.54333 9.26199 9.47006 9.36647 9.36587C9.47095 9.26167 9.54458 9.13061 9.57921 8.98718C9.59521 8.91838 9.60001 8.81118 9.60001 8.31998V4.47998C9.60001 3.98878 9.59521 3.88318 9.57761 3.81438C9.54336 3.67085 9.47009 3.53959 9.3659 3.43511C9.2617 3.33063 9.13064 3.25701 8.98721 3.22238C8.91841 3.20638 8.81121 3.19998 8.32001 3.19998H4.48001ZM15.68 3.19998C15.1888 3.19998 15.0832 3.20478 15.0144 3.22238C14.8707 3.25675 14.7393 3.33026 14.6348 3.43475C14.5303 3.53925 14.4568 3.67065 14.4224 3.81438C14.4064 3.88318 14.4 3.99038 14.4 4.47998V8.31998C14.4 8.81278 14.4048 8.91838 14.4224 8.98718C14.4568 9.1309 14.5303 9.2623 14.6348 9.3668C14.7393 9.47129 14.8707 9.54481 15.0144 9.57918C15.0832 9.59518 15.1904 9.59998 15.68 9.59998H19.52C20.0128 9.59998 20.1184 9.59518 20.1872 9.57758C20.3307 9.54333 20.462 9.47006 20.5665 9.36587C20.6709 9.26167 20.7446 9.13061 20.7792 8.98718C20.7952 8.91838 20.8 8.81118 20.8 8.31998V4.47998C20.8 3.98878 20.7936 3.88318 20.7776 3.81438C20.7434 3.67085 20.6701 3.53959 20.5659 3.43511C20.4617 3.33063 20.3306 3.25701 20.1872 3.22238C20.1184 3.20638 20.0112 3.19998 19.52 3.19998H15.68Z" fill="#43157C"/>
</svg>
