<svg width="25" height="25" viewBox="0 0 25 25" fill="none" xmlns="http://www.w3.org/2000/svg">
<path fill-rule="evenodd" clip-rule="evenodd" d="M8.47126 9.49604C11.4143 10.6327 14.9508 10.6327 17.8933 9.49482C19.1745 10.8469 20.237 12.3905 21.0423 14.0702C21.5752 14.152 22.0854 14.3024 22.5639 14.512C21.6919 12.2851 20.2167 10.1206 18.6309 8.49994L20.8883 5.19998C20.5191 4.95955 20.134 4.74436 19.7357 4.55587C18.2447 3.83171 15.8497 3 13.2122 3C10.5197 3 8.05998 3.86777 6.55972 4.60171C6.41061 4.67504 6.27128 4.74633 6.14173 4.81559C5.88078 4.95615 5.66079 5.08692 5.48845 5.19998L7.72999 8.49994C2.4806 14.0231 -1.43047 24.9979 13.2122 24.9979C14.2145 25.0033 15.2161 24.9421 16.2103 24.8146C15.816 24.488 15.4643 24.1131 15.1635 23.6987C14.5638 23.7492 13.9133 23.7749 13.2122 23.7757C9.67697 23.7757 7.45988 23.109 6.13561 22.1923C4.86757 21.3142 4.31086 20.1329 4.23202 18.7506C4.15014 17.3145 4.58952 15.6383 5.41268 13.9412C6.19795 12.323 7.29427 10.7653 8.47126 9.49604ZM17.1801 8.45594L18.9878 5.81414C17.3072 5.93513 15.3071 6.32991 13.3821 6.88724C12.0071 7.28445 10.48 7.22395 9.06464 6.96301C8.70812 6.897 8.35407 6.81833 8.00315 6.72713L9.17647 8.45472C11.6918 9.34999 14.6654 9.34999 17.1801 8.45594ZM7.7691 5.39309C8.25798 5.53853 8.76825 5.66503 9.28647 5.76097C10.6003 6.00297 11.9185 6.03841 13.0423 5.71269C14.3526 5.33082 15.6854 5.03059 17.0328 4.81376C15.9084 4.47521 14.5939 4.22221 13.2116 4.22221C11.1063 4.22221 9.14347 4.80948 7.7691 5.39309Z" fill="#777575"/>
<path fill-rule="evenodd" clip-rule="evenodd" d="M13.1871 16.4447C13.8111 16.4447 14.3806 16.6788 14.8127 17.0638C14.5847 17.4599 14.4018 17.8803 14.2676 18.3171C14.1636 18.1208 14.008 17.9565 13.8177 17.8419C13.6273 17.7274 13.4093 17.6669 13.1871 17.6669V20.1114C13.5031 20.1114 13.7909 19.9916 14.0078 19.7948C13.9839 20.2519 14.0114 20.7103 14.0897 21.1612C13.8025 21.2752 13.4962 21.3337 13.1871 21.3336V21.9447H11.9649V21.3336C11.4593 21.3336 10.9661 21.1769 10.5533 20.8851C10.1405 20.5932 9.82833 20.1804 9.65984 19.7037C9.60587 19.5509 9.61482 19.3829 9.68473 19.2367C9.75464 19.0904 9.87978 18.9779 10.0326 18.924C10.1854 18.87 10.3535 18.879 10.4997 18.9489C10.6459 19.0188 10.7584 19.1439 10.8124 19.2967C10.8967 19.535 11.0528 19.7413 11.2592 19.8872C11.4656 20.0331 11.7122 20.1114 11.9649 20.1114V17.6669C11.3166 17.6669 10.6949 17.4094 10.2365 16.951C9.77804 16.4926 9.52051 15.8708 9.52051 15.2225C9.52051 14.5742 9.77804 13.9525 10.2365 13.4941C10.6949 13.0356 11.3166 12.7781 11.9649 12.7781V12.167H13.1871V12.7781C13.6927 12.778 14.1859 12.9347 14.5987 13.2266C15.0116 13.5185 15.3237 13.9312 15.4922 14.4079C15.5189 14.4836 15.5305 14.5638 15.5262 14.6439C15.522 14.7241 15.5019 14.8026 15.4673 14.875C15.4327 14.9474 15.3842 15.0123 15.3245 15.0659C15.2648 15.1196 15.1951 15.161 15.1194 15.1877C15.0438 15.2144 14.9636 15.226 14.8834 15.2217C14.8033 15.2174 14.7248 15.1974 14.6524 15.1628C14.58 15.1282 14.5151 15.0796 14.4614 15.0199C14.4078 14.9603 14.3664 14.8906 14.3397 14.8149C14.2554 14.5766 14.0993 14.3703 13.8929 14.2244C13.6865 14.0785 13.4399 14.0002 13.1871 14.0003V16.4447ZM11.9649 14.0003C11.6408 14.0003 11.3299 14.1291 11.1007 14.3583C10.8715 14.5875 10.7427 14.8984 10.7427 15.2225C10.7427 15.5467 10.8715 15.8575 11.1007 16.0867C11.3299 16.316 11.6408 16.4447 11.9649 16.4447V14.0003Z" fill="#777575"/>
<path d="M20.7221 20.3681L21.4493 19.716L22.2652 20.6266L20.111 22.5564L17.9575 20.6253L18.7733 19.7154L19.4999 20.3675V17.667H20.7221V20.3681Z" fill="#777575"/>
<path fill-rule="evenodd" clip-rule="evenodd" d="M20.111 25.0003C21.4076 25.0003 22.6511 24.4853 23.5679 23.5684C24.4847 22.6516 24.9998 21.4081 24.9998 20.1115C24.9998 18.8149 24.4847 17.5714 23.5679 16.6546C22.6511 15.7377 21.4076 15.2227 20.111 15.2227C18.8144 15.2227 17.5709 15.7377 16.654 16.6546C15.7372 17.5714 15.2221 18.8149 15.2221 20.1115C15.2221 21.4081 15.7372 22.6516 16.654 23.5684C17.5709 24.4853 18.8144 25.0003 20.111 25.0003ZM20.111 23.7781C21.0834 23.7781 22.016 23.3918 22.7037 22.7042C23.3913 22.0166 23.7776 21.0839 23.7776 20.1115C23.7776 19.139 23.3913 18.2064 22.7037 17.5188C22.016 16.8312 21.0834 16.4449 20.111 16.4449C19.1385 16.4449 18.2059 16.8312 17.5183 17.5188C16.8306 18.2064 16.4443 19.139 16.4443 20.1115C16.4443 21.0839 16.8306 22.0166 17.5183 22.7042C18.2059 23.3918 19.1385 23.7781 20.111 23.7781Z" fill="#777575"/>
</svg>
