<svg width="24" height="24" viewBox="0 0 24 24" fill="none" xmlns="http://www.w3.org/2000/svg">
<path d="M2.75 12H6C6.53043 12 7.03914 12.2107 7.41421 12.5858C7.78929 12.9609 8 13.4696 8 14C8 14.5304 8.21071 15.0391 8.58579 15.4142C8.96086 15.7893 9.46957 16 10 16H14C14.5304 16 15.0391 15.7893 15.4142 15.4142C15.7893 15.0391 16 14.5304 16 14C16 13.4696 16.2107 12.9609 16.5858 12.5858C16.9609 12.2107 17.4696 12 18 12H21.25" fill="white"/>
<path d="M2.75 12H6C6.53043 12 7.03914 12.2107 7.41421 12.5858C7.78929 12.9609 8 13.4696 8 14C8 14.5304 8.21071 15.0391 8.58579 15.4142C8.96086 15.7893 9.46957 16 10 16H14C14.5304 16 15.0391 15.7893 15.4142 15.4142C15.7893 15.0391 16 14.5304 16 14C16 13.4696 16.2107 12.9609 16.5858 12.5858C16.9609 12.2107 17.4696 12 18 12H21.25" stroke="#7B7B7B" stroke-width="1.5" stroke-linecap="round" stroke-linejoin="round"/>
<path d="M21.25 10.375V15.25C21.25 16.8413 20.6179 18.3674 19.4926 19.4926C18.3674 20.6179 16.8413 21.25 15.25 21.25H8.75C7.1587 21.25 5.63258 20.6179 4.50736 19.4926C3.38214 18.3674 2.75 16.8413 2.75 15.25V8.75C2.75 7.1587 3.38214 5.63258 4.50736 4.50736C5.63258 3.38214 7.1587 2.75 8.75 2.75H13.625" stroke="#7B7B7B" stroke-width="1.5" stroke-linecap="round"/>
<path d="M18.745 2.75V7.75M16.25 5.255H21.25" stroke="#7B7B7B" stroke-width="1.5" stroke-miterlimit="10" stroke-linecap="round"/>
</svg>
