<svg width="253" height="261" viewBox="0 0 253 261" fill="none" xmlns="http://www.w3.org/2000/svg">
<ellipse cx="118.379" cy="150.794" rx="118.379" ry="109.489" fill="#FDEEE4"/>
<path d="M47.1603 69.8652C48.0299 70.1713 48.9555 70.2856 49.8734 70.2003C50.7914 70.115 51.68 69.8321 52.4783 69.371C53.2767 68.9099 53.9658 68.2816 54.4984 67.5291C55.031 66.7766 55.3945 65.9178 55.5639 65.0116L56.5864 59.5157C60.7907 58.5579 65.1567 58.5579 69.3611 59.5157L70.3899 65.0116C70.5594 65.9178 70.9228 66.7766 71.4554 67.5291C71.988 68.2816 72.6772 68.9099 73.4755 69.371C74.2738 69.8321 75.1624 70.115 76.0804 70.2003C76.9984 70.2856 77.9239 70.1713 78.7935 69.8652L84.0625 68.0119C86.9955 71.1713 89.1806 74.9497 90.4563 79.0676L86.2065 82.7102C85.5066 83.3101 84.9448 84.0544 84.5596 84.8919C84.1744 85.7294 83.975 86.6403 83.975 87.5622C83.975 88.484 84.1744 89.395 84.5596 90.2325C84.9448 91.07 85.5066 91.8143 86.2065 92.4142L90.4563 96.0536C89.1806 100.172 86.9955 103.95 84.0625 107.109L78.7903 105.256C77.9207 104.95 76.9952 104.836 76.0772 104.921C75.1593 105.006 74.2706 105.289 73.4723 105.75C72.674 106.211 71.9849 106.84 71.4522 107.592C70.9196 108.345 70.5562 109.203 70.3867 110.11L69.3675 115.606C65.1631 116.563 60.7971 116.563 56.5928 115.606L55.5639 110.11C55.3945 109.203 55.031 108.345 54.4984 107.592C53.9658 106.84 53.2767 106.211 52.4783 105.75C51.68 105.289 50.7914 105.006 49.8734 104.921C48.9555 104.836 48.0299 104.95 47.1603 105.256L41.8913 107.109C38.9583 103.95 36.7732 100.172 35.4976 96.0536L39.7473 92.411C40.4466 91.8111 41.008 91.067 41.3929 90.2298C41.7777 89.3926 41.977 88.482 41.977 87.5606C41.977 86.6392 41.7777 85.7286 41.3929 84.8914C41.008 84.0542 40.4466 83.3101 39.7473 82.7102L35.4976 79.0676C36.7723 74.95 38.9563 71.1716 41.8881 68.0119L47.1603 69.8652ZM62.9769 77.9748C65.5192 77.9748 67.9574 78.9847 69.7551 80.7824C71.5528 82.5801 72.5627 85.0183 72.5627 87.5606C72.5627 90.1029 71.5528 92.5411 69.7551 94.3388C67.9574 96.1365 65.5192 97.1464 62.9769 97.1464C60.4346 97.1464 57.9964 96.1365 56.1987 94.3388C54.401 92.5411 53.3911 90.1029 53.3911 87.5606C53.3911 85.0183 54.401 82.5801 56.1987 80.7824C57.9964 78.9847 60.4346 77.9748 62.9769 77.9748Z" stroke="#EFA56F" stroke-width="5.08278" stroke-linecap="round" stroke-linejoin="round"/>
<path d="M148.763 175.208C144.092 175.208 140.306 171.422 140.306 166.751V117.508C140.306 100.912 126.804 87.4089 110.207 87.4089C93.6103 87.4089 80.1074 100.911 80.1074 117.508V146.149C80.1074 150.819 76.3213 154.606 71.6509 154.606C66.9805 154.606 63.1943 150.819 63.1943 146.149V117.508C63.1943 91.5854 84.2839 70.4958 110.207 70.4958C136.13 70.4958 157.219 91.5854 157.219 117.508V166.751C157.219 171.422 153.433 175.208 148.763 175.208Z" fill="#B1B4B5"/>
<path d="M161.666 226.417H58.7596C49.1519 226.417 41.3633 218.628 41.3633 209.021V149.525C41.3633 139.917 49.1519 132.129 58.7596 132.129H161.666C171.274 132.129 179.063 139.917 179.063 149.525V209.02C179.063 218.628 171.274 226.417 161.666 226.417Z" fill="#A963FF"/>
<path d="M56.4611 212.397H55.5895C52.8444 212.397 50.6191 210.172 50.6191 207.427V151.119C50.6191 148.374 52.8444 146.149 55.5895 146.149H56.4611C59.2062 146.149 61.4314 148.374 61.4314 151.119V207.427C61.4314 210.172 59.2062 212.397 56.4611 212.397Z" fill="#E5D4FA"/>
<path d="M82.3374 35.0245C82.8467 35.2038 83.3888 35.2708 83.9265 35.2208C84.4641 35.1709 84.9846 35.0052 85.4522 34.7351C85.9198 34.465 86.3234 34.097 86.6354 33.6562C86.9473 33.2155 87.1602 32.7125 87.2594 32.1817L87.8583 28.9627C90.3209 28.4017 92.8781 28.4017 95.3406 28.9627L95.9433 32.1817C96.0425 32.7125 96.2554 33.2155 96.5673 33.6562C96.8793 34.097 97.2829 34.465 97.7505 34.7351C98.2181 35.0052 98.7386 35.1709 99.2762 35.2208C99.8139 35.2708 100.356 35.2038 100.865 35.0245L103.951 33.939C105.669 35.7895 106.949 38.0026 107.696 40.4145L105.207 42.548C104.797 42.8994 104.468 43.3353 104.243 43.8259C104.017 44.3164 103.9 44.8499 103.9 45.3899C103.9 45.9298 104.017 46.4634 104.243 46.9539C104.468 47.4445 104.797 47.8804 105.207 48.2318L107.696 50.3634C106.949 52.7753 105.669 54.9884 103.951 56.8389L100.863 55.7534C100.354 55.5741 99.812 55.5071 99.2744 55.5571C98.7367 55.6071 98.2162 55.7728 97.7486 56.0428C97.281 56.3129 96.8774 56.6809 96.5655 57.1217C96.2535 57.5624 96.0406 58.0654 95.9414 58.5962L95.3444 61.8152C92.8818 62.3762 90.3246 62.3762 87.8621 61.8152L87.2594 58.5962C87.1602 58.0654 86.9473 57.5624 86.6354 57.1217C86.3234 56.6809 85.9198 56.3129 85.4522 56.0428C84.9846 55.7728 84.4641 55.6071 83.9265 55.5571C83.3888 55.5071 82.8467 55.5741 82.3374 55.7534L79.2512 56.8389C77.5334 54.9884 76.2535 52.7753 75.5063 50.3634L77.9955 48.2299C78.4051 47.8785 78.7339 47.4427 78.9593 46.9523C79.1847 46.462 79.3014 45.9287 79.3014 45.389C79.3014 44.8493 79.1847 44.3159 78.9593 43.8256C78.7339 43.3352 78.4051 42.8994 77.9955 42.548L75.5063 40.4145C76.253 38.0028 77.5322 35.7897 79.2494 33.939L82.3374 35.0245ZM91.6013 39.7744C93.0904 39.7744 94.5185 40.3659 95.5714 41.4189C96.6244 42.4718 97.2159 43.8999 97.2159 45.389C97.2159 46.878 96.6244 48.3061 95.5714 49.359C94.5185 50.412 93.0904 51.0035 91.6013 51.0035C90.1123 51.0035 88.6842 50.412 87.6313 49.359C86.5783 48.3061 85.9868 46.878 85.9868 45.389C85.9868 43.8999 86.5783 42.4718 87.6313 41.4189C88.6842 40.3659 90.1123 39.7744 91.6013 39.7744Z" stroke="#EFA56F" stroke-width="3.10602" stroke-linecap="round" stroke-linejoin="round"/>
<mask id="mask0_64_86" style="mask-type:luminance" maskUnits="userSpaceOnUse" x="160" y="54" width="89" height="90">
<path d="M204.612 138.9C209.877 138.907 215.092 137.873 219.956 135.858C224.82 133.843 229.238 130.887 232.957 127.159C236.684 123.441 239.64 119.023 241.655 114.159C243.67 109.294 244.704 104.08 244.698 98.8149C244.704 93.5499 243.67 88.3355 241.655 83.4713C239.64 78.6071 236.684 74.189 232.957 70.4708C229.238 66.7432 224.82 63.787 219.956 61.7721C215.092 59.7572 209.877 58.7233 204.612 58.7298C199.347 58.7233 194.133 59.7572 189.269 61.7721C184.405 63.787 179.987 66.7432 176.268 70.4708C172.541 74.189 169.585 78.6071 167.57 83.4713C165.555 88.3355 164.521 93.5499 164.527 98.8149C164.521 104.08 165.555 109.294 167.57 114.159C169.585 119.023 172.541 123.441 176.268 127.159C179.987 130.887 184.405 133.843 189.269 135.858C194.133 137.873 199.347 138.907 204.612 138.9Z" fill="white" stroke="white" stroke-width="8.41569" stroke-linejoin="round"/>
<path d="M188.578 98.8149L200.604 110.84L224.655 86.7894" stroke="black" stroke-width="8.41569" stroke-linecap="round" stroke-linejoin="round"/>
</mask>
<g mask="url(#mask0_64_86)">
<path d="M156.51 50.7129H252.714V146.917H156.51V50.7129Z" fill="#3CBF2A"/>
</g>
<path d="M73.4536 245.975C74.8159 249.173 73.1349 253.085 69.1504 254.483C65.1657 255.881 61.0208 254.014 59.6583 250.816C58.2958 247.619 59.9777 243.706 63.9625 242.308C67.9471 240.91 72.0912 242.778 73.4536 245.975Z" stroke="#59C3FF" stroke-width="5.4015"/>
<ellipse cx="4.9697" cy="5.33916" rx="4.9697" ry="5.33916" transform="matrix(0.392001 0.919965 -0.943587 0.331125 10.0771 124.343)" fill="#546FFA"/>
<path d="M205.778 14.1901C206.447 13.8893 207.164 14.5035 206.871 15.1274L201.351 26.8981C201.259 27.0946 201.266 27.3175 201.37 27.5081L207.617 38.9622C207.948 39.5697 207.264 40.2271 206.577 39.9616L193.618 34.9567C193.403 34.8734 193.157 34.88 192.946 34.9747L180.313 40.6492C179.643 40.95 178.926 40.3358 179.219 39.7118L184.739 27.9412C184.831 27.7446 184.825 27.5218 184.721 27.3312L178.474 15.8771C178.142 15.2696 178.826 14.6122 179.514 14.8777L192.472 19.8826C192.688 19.9659 192.933 19.9593 193.144 19.8646L205.778 14.1901Z" fill="#A0D5D7"/>
</svg>
