<svg width="25" height="25" viewBox="0 0 25 25" fill="none" xmlns="http://www.w3.org/2000/svg">
<path d="M19.3955 15.8215C19.5539 15.8212 19.665 15.8693 19.7617 15.9661C19.8583 16.0626 19.9059 16.1726 19.9053 16.3293V18.3733C19.9053 18.7983 19.7596 19.1502 19.4551 19.4553C19.1509 19.76 18.7995 19.9051 18.374 19.9045H6.125C5.69989 19.9045 5.34836 19.7597 5.04395 19.4553C4.73956 19.1509 4.5943 18.7994 4.59375 18.3733V16.3323C4.59375 16.1719 4.64217 16.0618 4.7373 15.967C4.83337 15.8713 4.94443 15.822 5.10449 15.8215C5.26286 15.8212 5.37402 15.8694 5.4707 15.9661C5.56726 16.0626 5.6149 16.1726 5.61426 16.3293V18.884H18.8838V16.3323C18.8838 16.1719 18.9332 16.0619 19.0283 15.967C19.1244 15.8713 19.2354 15.8219 19.3955 15.8215ZM12.252 5.02759C12.3318 5.02722 12.399 5.03958 12.457 5.06079C12.4981 5.0759 12.5472 5.10354 12.6025 5.15747V5.15845L16.2773 8.83325C16.3886 8.94452 16.4255 9.04894 16.4219 9.17114C16.4176 9.31451 16.3705 9.43305 16.2695 9.54614C16.1563 9.65668 16.0391 9.70665 15.8955 9.71118C15.7612 9.71541 15.6538 9.67451 15.5449 9.56567L12.7598 6.78052V15.3118C12.7597 15.4718 12.7107 15.5824 12.6152 15.678C12.5196 15.7736 12.409 15.8219 12.25 15.8215C12.09 15.8211 11.9789 15.7726 11.8828 15.677C11.7877 15.5823 11.7383 15.472 11.7383 15.3118V6.78052L8.95312 9.56567C8.84507 9.67372 8.73783 9.71511 8.60254 9.71118C8.46001 9.70703 8.34237 9.65811 8.22852 9.54712C8.12786 9.43386 8.08086 9.31441 8.07617 9.17017C8.07226 9.04901 8.10845 8.94529 8.21973 8.83423L11.8955 5.15845C11.9515 5.10245 11.9992 5.07519 12.0371 5.06177C12.0981 5.0402 12.1688 5.028 12.252 5.02759Z" fill="black" stroke="#0074D3" stroke-width="1.02077"/>
</svg>
